<?xml version="1.0" encoding="UTF-8" standalone="no"?>
<!-- Created with Inkscape (http://www.inkscape.org/) -->

<svg
   width="225.95416mm"
   height="225.95416mm"
   viewBox="0 0 225.95416 225.95416"
   version="1.1"
   id="svg1"
   xml:space="preserve"
   inkscape:version="1.4.2 (ebf0e940, 2025-05-08)"
   sodipodi:docname="jt.svg"
   xmlns:inkscape="http://www.inkscape.org/namespaces/inkscape"
   xmlns:sodipodi="http://sodipodi.sourceforge.net/DTD/sodipodi-0.dtd"
   xmlns="http://www.w3.org/2000/svg"
   xmlns:svg="http://www.w3.org/2000/svg"><sodipodi:namedview
     id="namedview1"
     pagecolor="#ffffff"
     bordercolor="#000000"
     borderopacity="0.25"
     inkscape:showpageshadow="2"
     inkscape:pageopacity="0.0"
     inkscape:pagecheckerboard="0"
     inkscape:deskcolor="#d1d1d1"
     inkscape:document-units="mm"
     inkscape:zoom="0.21641451"
     inkscape:cx="274.93535"
     inkscape:cy="859.46177"
     inkscape:window-width="1472"
     inkscape:window-height="895"
     inkscape:window-x="0"
     inkscape:window-y="33"
     inkscape:window-maximized="0"
     inkscape:current-layer="layer1" /><defs
     id="defs1" /><g
     inkscape:label="Layer 1"
     inkscape:groupmode="layer"
     id="layer1"
     transform="translate(4.4979148,-35.45417)"><path
       style="fill:#6a3137"
       d="m 98.740525,188.35701 c -3.807017,-0.27402 -7.089074,-0.83795 -10.766566,-1.84992 -3.185316,-0.87654 -7.902929,-2.99597 -8.717402,-3.91637 -0.471343,-0.53264 -0.381028,-0.51711 1.058333,0.18196 2.892176,1.40468 7.773001,2.93256 11.495527,3.59851 9.292303,1.66238 21.729433,0.98943 31.589243,-1.70923 2.43925,-0.66763 2.54064,-0.87668 0.29305,-0.6042 -3.14528,0.38131 -10.81825,0.21518 -13.75834,-0.29788 -7.61919,-1.32961 -14.550098,-4.55034 -18.803904,-8.738 -3.696991,-3.63951 -5.106628,-6.98011 -5.338379,-12.65104 -0.0844,-2.06523 -0.03679,-3.49239 0.121802,-3.65098 0.170764,-0.17076 0.311902,0.76844 0.410122,2.72916 0.172146,3.43643 0.768311,5.40157 2.546904,8.39539 3.805626,6.40582 11.592215,10.86611 22.518665,12.89909 2.02375,0.37654 3.93136,0.46612 9.78959,0.45973 6.8969,-0.008 7.46216,-0.0461 10.84791,-0.7407 4.67364,-0.95879 13.19819,-3.16493 19.05,-4.93012 3.07931,-0.92887 12.54494,-3.25033 15.61042,-3.82848 8.82231,-1.66389 18.77772,-1.86125 25.38695,-0.50328 2.279,0.46825 5.9129,1.94929 7.36419,3.00135 0.91695,0.66471 2.14344,2.54049 2.55862,3.91311 0.32542,1.07588 -0.24173,0.61943 -0.74208,-0.59723 -0.27868,-0.67764 -1.00282,-1.6423 -1.68087,-2.23914 -3.54277,-3.11847 -13.39842,-4.40196 -24.28785,-3.16296 -2.97755,0.33878 -13.32209,2.38594 -17.19792,3.40342 -6.19355,1.62592 -12.84586,3.44283 -14.97402,4.08976 -4.94043,1.50183 -17.40244,4.36608 -23.65515,5.43688 -4.41055,0.75532 -14.67312,1.69528 -17.06562,1.56306 -0.3638,-0.0201 -2.00775,-0.13346 -3.653225,-0.25189 z m -52.416392,-2.98858 c 0.06063,-0.0575 0.878732,-0.42641 1.817997,-0.81988 0.939264,-0.39346 2.5086,-1.23817 3.487413,-1.87712 2.058005,-1.34343 5.255874,-3.99551 5.255874,-4.35883 0,-0.13641 -0.404177,-0.24802 -0.898171,-0.24802 -2.246698,0 -6.733538,-1.94066 -9.484557,-4.10229 -3.092286,-2.42978 -5.630938,-6.64507 -6.436209,-10.68696 -0.528333,-2.65185 -0.406241,-7.24519 0.256177,-9.63793 0.58314,-2.10637 2.367322,-5.61285 3.956853,-7.77645 1.711628,-2.32981 6.602311,-7.18683 9.309109,-9.24504 6.841471,-5.20216 16.328206,-10.18905 25.918673,-13.62469 l 1.058333,-0.37913 v -14.54094 c 0,-13.75286 -0.02724,-14.595787 -0.50257,-15.552941 -0.621983,-1.252458 -1.325935,-1.725818 -3.418289,-2.298569 -1.272397,-0.3483 -1.635391,-0.559118 -1.635391,-0.949797 0,-0.482816 0.330644,-0.502132 8.595335,-0.502132 7.868598,0 8.602635,0.03791 8.681681,0.448359 0.06435,0.334124 -0.204376,0.52089 -1.05471,0.733037 -1.916565,0.478157 -3.36823,1.283534 -3.905271,2.166627 -0.674826,1.109664 -0.780868,2.561123 -0.890262,12.185586 l -0.09235,8.12528 0.566945,-1.3784 c 1.594241,-3.87605 5.470942,-9.47762 9.110737,-13.164386 3.160946,-3.20174 6.244595,-5.471469 9.728715,-7.160854 3.65201,-1.770789 6.13987,-2.404475 9.60814,-2.4473 3.27385,-0.04042 4.74222,0.468451 5.96045,2.065633 1.0527,1.380161 1.22677,4.294873 0.40203,6.731672 -1.41057,4.167685 -6.28446,9.241125 -13.17527,13.714675 -4.39689,2.85449 -13.745327,7.29793 -19.286383,9.16707 -1.744618,0.58851 -1.815944,0.64728 -2.15599,1.77645 -0.26522,0.8807 -0.34625,3.41194 -0.329592,10.29593 0.04267,17.63304 -0.904866,24.09716 -4.536074,30.94525 -3.322282,6.2655 -7.444768,10.37926 -13.018972,12.99142 -2.56805,1.20342 -6.428262,2.38576 -8.157242,2.49845 -1.077235,0.0702 -1.58998,0.33832 -3.745608,1.95853 -1.373635,1.03245 -2.570533,1.87718 -2.659773,1.87718 -0.08924,0 -0.631921,0.29649 -1.205958,0.65886 -1.592439,1.00526 -5.425406,2.51614 -6.383234,2.51614 -0.469053,0 -0.803215,-0.047 -0.742581,-0.10449 z m 16.60598,-7.73224 c 3.853903,-1.10366 6.590631,-2.66598 9.398485,-5.36532 3.135701,-3.01451 5.47213,-6.99373 6.883157,-11.72282 1.478155,-4.95407 1.930703,-8.42997 2.279463,-17.50791 l 0.245218,-6.38285 1.606212,-4.86394 c 0.883416,-2.67516 1.554486,-4.91566 1.491267,-4.97888 -0.145441,-0.14544 -1.428136,3.22144 -2.540271,6.66782 -1.327836,4.11482 -4.107144,12.13888 -6.369272,18.38854 -4.771759,13.18312 -7.785204,18.49003 -13.709357,24.14323 -1.915063,1.82748 -2.074398,2.05052 -1.464815,2.05052 0.376191,0 1.357151,-0.19277 2.179913,-0.42839 z m -4.130751,-1.21934 c 2.009667,-2.29952 4.203966,-5.63539 5.633611,-8.56445 1.796588,-3.68085 2.130946,-4.55237 5.573021,-14.52636 1.506601,-4.36562 3.699663,-10.67593 4.873472,-14.02291 1.173809,-3.34698 2.655103,-7.5737 3.291765,-9.39271 0.636662,-1.81901 1.410452,-3.94785 1.719533,-4.73075 0.309081,-0.78291 0.505784,-1.47965 0.437116,-1.54832 -0.36999,-0.36999 -6.773652,2.43782 -11.139338,4.88426 -8.516688,4.77257 -15.503699,10.71078 -20.011255,17.00744 -3.911961,5.46466 -5.474268,10.49528 -5.175948,16.66653 0.386475,7.99489 4.402591,13.38822 11.296578,15.17044 1.931609,0.49935 2.335936,0.39044 3.501445,-0.94317 z m 33.96515,-58.68747 c 10.143758,-4.11265 18.288068,-9.10052 23.519858,-14.40444 2.74781,-2.78567 4.03559,-4.79372 4.65364,-7.256446 1.06603,-4.247811 -0.58597,-6.654972 -4.55204,-6.632857 -1.73019,0.0096 -3.2796,0.436659 -5.69999,1.570894 -7.761,3.636924 -16.317506,13.627099 -21.197048,24.748679 -1.393194,3.1754 -1.508824,3.57188 -1.041729,3.57188 0.207137,0 2.149926,-0.71897 4.317309,-1.59771 z m 33.204748,57.97661 c -0.71794,-0.4546 -0.0896,-1.05454 1.29715,-1.2385 1.58637,-0.21044 2.88531,-1.00572 3.43208,-2.10132 0.5003,-1.00249 0.64386,-14.5417 0.34462,-32.50007 l -0.20665,-12.40161 -3.175,-0.87029 c -1.74625,-0.47866 -5.61578,-1.76249 -8.59896,-2.85296 -6.04366,-2.20919 -7.53682,-2.56207 -10.84092,-2.56207 -4.1044,0 -7.34588,1.29579 -10.07934,4.02926 -3.650854,3.65085 -4.955907,9.67021 -3.017231,13.91652 0.943598,2.06678 0.170121,1.5558 -0.905682,-0.59831 -0.77062,-1.54304 -0.916349,-2.14251 -1.024729,-4.21535 -0.159696,-3.05429 0.222566,-4.90776 1.565578,-7.59102 1.461169,-2.91933 3.762665,-5.19349 6.655224,-6.57618 5.80724,-2.77596 10.43731,-2.47741 19.10231,1.23171 9.88086,4.22959 18.93603,6.1487 25.55678,5.4164 5.46296,-0.60424 9.33986,-2.11357 11.91089,-4.63706 1.54711,-1.5185 1.95993,-2.25787 2.29741,-4.11465 0.31741,-1.74635 0.0766,-2.85112 -1.12341,-5.15331 -1.08874,-2.08877 -1.1352,-2.49915 -0.39018,-3.44629 0.72925,-0.92708 1.61988,-0.89438 2.44808,0.0899 1.01902,1.21103 1.37038,2.54981 1.35696,5.1703 -0.0107,2.09032 -0.11175,2.59771 -0.8166,4.10104 -1.99823,4.2619 -6.78264,7.49575 -12.53264,8.47099 -3.21101,0.54461 -2.90771,0.86797 0.66146,0.70518 4.96432,-0.22641 7.33131,-0.92553 8.93085,-2.63785 0.40811,-0.43687 0.80013,-0.73619 0.87117,-0.66515 0.071,0.071 -0.0393,0.95059 -0.24517,1.95454 -0.32597,1.58951 -0.79573,5.20764 -1.36149,10.48631 -0.25058,2.33798 -0.81539,2.35108 -1.05916,0.0246 -0.3844,-3.66856 -0.70374,-4.87058 -1.62,-6.09773 -0.9244,-1.23805 -2.4861,-1.59468 -9.06166,-2.06933 -3.14323,-0.22688 -6.60317,-0.51722 -7.68877,-0.64518 -1.08559,-0.12797 -2.06329,-0.17736 -2.17267,-0.10976 -0.10937,0.0676 -0.14338,6.10159 -0.0756,13.40887 0.22517,24.26438 0.34405,29.38978 0.70725,30.4918 0.45265,1.37347 1.67418,2.17116 3.67068,2.39704 1.25085,0.14151 1.56391,0.27035 1.56391,0.64362 0,0.25667 -0.18833,0.53895 -0.41851,0.62728 -0.66281,0.25434 -15.54774,0.17848 -15.95806,-0.0813 z M 99.869051,164.72991 c -6.565551,-1.7155 -9.778426,-5.24511 -9.778426,-10.74241 0,-1.96799 0.102823,-2.46595 0.823016,-3.98579 1.096424,-2.31381 3.446328,-4.77155 6.434569,-6.72983 1.997281,-1.30888 2.395981,-1.68038 2.27168,-2.11667 -0.803407,-2.81993 -0.77893,-5.76465 0.06803,-8.18449 0.57793,-1.65119 2.49862,-3.77366 4.33583,-4.79132 1.23491,-0.68404 1.6791,-0.78252 3.52937,-0.78252 2.52538,0 3.6501,0.52576 4.55957,2.13141 0.99764,1.76132 0.66074,3.65218 -1.06716,5.98927 -0.75681,1.02365 -3.09067,2.6035 -5.80751,3.93126 -1.34265,0.65618 -2.3151,1.29431 -2.3151,1.5192 0,0.48497 2.21626,4.99722 2.86529,5.83368 l 0.48062,0.61941 1.03656,-1.35923 c 1.29368,-1.69639 3.76905,-3.80827 5.52517,-4.71387 1.09104,-0.56262 1.79978,-0.70985 3.85069,-0.79996 3.39445,-0.14913 4.57625,0.19539 6.11372,1.7823 1.54998,1.59982 2.32804,3.75704 2.53446,7.02694 0.23046,3.65071 -0.67998,6.59826 -2.74362,8.88246 -0.52343,0.57937 -0.89519,1.1099 -0.82614,1.17894 0.069,0.0691 0.80012,0.1411 1.6246,0.16011 0.82448,0.019 1.49906,0.14607 1.49906,0.28237 0,0.13863 -0.90347,0.21756 -2.05052,0.17913 -1.99672,-0.0669 -2.08359,-0.0434 -3.31107,0.89542 -1.73259,1.32514 -4.63185,2.69466 -7.4707,3.52893 -1.95313,0.57397 -3.04721,0.71692 -6.08542,0.79508 -3.23669,0.0833 -4.00609,0.0164 -6.096569,-0.52982 z m 12.578869,-1.62819 c 3.00688,-0.78969 6.87916,-2.80005 6.87916,-3.57143 0,-0.13812 -0.42617,-0.25112 -0.94706,-0.25112 -2.41913,0 -7.15175,-2.72161 -11.00591,-6.32923 l -2.29568,-2.14882 -2.51688,2.59376 c -1.38429,1.42657 -3.030135,2.88033 -3.657445,3.23058 -1.001342,0.55908 -0.833751,0.33121 1.372975,-1.86678 1.38245,-1.37698 2.88737,-3.03772 3.34426,-3.69053 l 0.83071,-1.18692 -1.35988,-1.859 c -0.74793,-1.02244 -1.76637,-2.66178 -2.2632,-3.64297 -0.49683,-0.98119 -1.012479,-1.7476 -1.145886,-1.70313 -0.555462,0.18515 -2.81514,2.26365 -3.616077,3.32615 -0.474577,0.62955 -1.239502,1.93963 -1.699833,2.91129 -0.756856,1.59755 -0.836966,2.00722 -0.836966,4.28018 0,3.10229 0.566687,4.44719 2.801371,6.64841 2.838364,2.79585 6.412921,3.99877 11.353841,3.82082 1.67349,-0.0603 3.81661,-0.31284 4.7625,-0.56126 z m 9.10563,-5.41338 c 3.1167,-3.332 3.95884,-8.95664 1.80192,-12.03499 -2.2037,-3.14512 -7.49936,-4.17493 -11.4128,-2.21937 -1.6357,0.81737 -5.051,4.11654 -5.051,4.87925 0,0.5003 0.50027,1.29598 2.41932,3.84785 1.71028,2.27427 3.34956,3.73536 5.62608,5.01452 1.34598,0.75629 4.14947,1.76049 5.08141,1.82014 0.16199,0.0104 0.85277,-0.57796 1.53507,-1.3074 z m -16.80052,-18.67871 c 3.76027,-2.06163 5.18438,-3.60521 5.67002,-6.14572 0.4523,-2.3661 -1.03388,-4.54099 -3.10301,-4.54099 -2.35254,0 -4.47791,2.1525 -5.19659,5.26292 -0.51232,2.21733 -0.0422,6.37875 0.72066,6.37875 0.0919,0 0.95095,-0.42973 1.90892,-0.95496 z"
       id="path1" /></g></svg>
