<svg xmlns="http://www.w3.org/2000/svg" xmlns:xlink="http://www.w3.org/1999/xlink" version="1.1" x="0px" y="0px" viewBox="0 0 100 125" enable-background="new 0 0 100 100" xml:space="preserve" fill="#6a3137"><path d="M61.58,45.162c-7.001,0-12.697,5.696-12.697,12.698s5.696,12.697,12.697,12.697s12.697-5.696,12.697-12.697  S68.581,45.162,61.58,45.162z M61.58,68.557c-5.898,0-10.697-4.799-10.697-10.697c0-5.899,4.799-10.698,10.697-10.698  s10.697,4.799,10.697,10.698C72.277,63.758,67.479,68.557,61.58,68.557z"/><path d="M88.93,32.72H56.566v-3.729h1.135c0.553,0,1-0.448,1-1v-6.4c0-0.552-0.447-1-1-1H42.299c-0.553,0-1,0.448-1,1v6.4  c0,0.552,0.447,1,1,1h1.135v3.729H26.421c-0.253-1.699-1.353-2.941-2.709-2.941H16.29c-1.357,0-2.457,1.243-2.71,2.941h-2.51  c-2.316,0-4.2,2.037-4.2,4.54v35.4c0,2.503,1.884,4.54,4.2,4.54h20.066c0,0,0.001,0,0.002,0l0.002,0H50.84  c0.21,0,0.394-0.08,0.555-0.19c3.039,1.623,6.506,2.546,10.186,2.546c3.634,0,7.06-0.902,10.072-2.488  c0.141,0.077,0.295,0.132,0.468,0.132h16.81c2.316,0,4.2-2.037,4.2-4.54v-35.4C93.13,34.757,91.246,32.72,88.93,32.72z   M45.434,32.471v-3.479h9.133v3.479H45.434z M43.299,26.992v-4.4h13.402v4.4h-1.135H44.434H43.299z M16.29,31.779h7.422  c0.263,0,0.764,0.659,0.764,1.692c0,1.032-0.501,1.69-0.764,1.69H16.29c-0.218,0-0.579-0.424-0.712-1.138  c0.031-0.097,0.062-0.196,0.062-0.304c0-0.155-0.042-0.297-0.104-0.428C15.588,32.352,16.037,31.779,16.29,31.779z M8.87,72.66  v-35.4c0-1.4,0.987-2.54,2.2-2.54h2.622c0.378,1.434,1.379,2.441,2.598,2.441h7.422c1.218,0,2.219-1.008,2.596-2.441h3.831V75.2  H11.07C9.857,75.2,8.87,74.061,8.87,72.66z M41.883,57.859c0-10.861,8.836-19.698,19.697-19.698s19.697,8.836,19.697,19.698  S72.441,77.557,61.58,77.557S41.883,68.721,41.883,57.859z M91.13,72.66c0,1.4-0.987,2.54-2.2,2.54H74.605  c5.262-3.963,8.672-10.261,8.672-17.341c0-11.964-9.733-21.698-21.697-21.698s-21.697,9.733-21.697,21.698  c0,7.08,3.41,13.378,8.672,17.341H32.139V34.72H88.93c1.213,0,2.2,1.139,2.2,2.54V72.66z"/><path d="M25.2,67.664H14.8c-0.553,0-1,0.448-1,1s0.447,1,1,1h10.4c0.553,0,1-0.448,1-1S25.753,67.664,25.2,67.664z"/></svg>