<svg xmlns="http://www.w3.org/2000/svg" version="1.1" viewBox="-5.0 -10.0 110.0 135.0">
 <path fill="#6B3136" d="m51.707 99.961c-0.015625-0.015626-1.3047-0.097657-2.8711-0.18359-1.5625-0.085938-3.2031-0.20312-3.6406-0.25781-0.4375-0.058593-1.457-0.1875-2.2578-0.28906-0.98438-0.125-1.5508-0.24609-1.7344-0.36719-0.34766-0.22656-0.14844-0.30859 0.27734-0.11328 0.36719 0.16797 3.1055 0.34375 8.2578 0.53516 1.0156 0.039063 2.0938 0.082032 2.3945 0.097656 1.6172 0.082032 5.4141-0.44922 6.8086-0.95703 0.70312-0.25391 0.92188-0.39453 1.4219-0.89844 0.48828-0.49219 0.65234-0.59766 0.92188-0.59766 0.30859 0 0.33203 0.023437 0.33203 0.33594 0 0.55078-0.1875 0.92969-0.59766 1.1992-0.50781 0.33594-2.2656 0.91797-3.1992 1.0586-0.41016 0.0625-0.99219 0.15234-1.2891 0.20703-1.0039 0.17188-4.7109 0.35547-4.8281 0.23828zm-12.156-1.9297c-0.41016-0.26172-0.82031-0.56641-0.91406-0.67188-0.19922-0.22656-0.46484-0.83984-0.42578-0.98438 0.015624-0.054688 0.054687-0.22266 0.089843-0.37109 0.03125-0.14844 0.14453-0.31641 0.25-0.375 0.23438-0.125 0.54688-0.027344 0.42188 0.13281-0.14062 0.17969-0.21094 0.71094-0.14844 1.1016 0.050781 0.30469 0.16797 0.4375 0.76953 0.87891 0.90625 0.66016 0.89453 0.64844 0.78906 0.71094-0.046874 0.03125-0.42187-0.16016-0.83203-0.42188zm4.9961-1.3711c-0.24609-0.015625-0.74219-0.078125-1.0977-0.13281-0.35547-0.054688-1.1211-0.14453-1.6992-0.19922-1.2383-0.11328-2.5312-0.54297-2.2188-0.73828 0.050781-0.03125 0.39844 0.027344 0.77344 0.13672 0.37109 0.10547 1.0195 0.22266 1.4375 0.25391 1.5703 0.125 3.9844 0.50781 4.1484 0.65625 0.089844 0.082031-0.33203 0.089843-1.3438 0.019531zm5.6602-0.20312c-0.03125-0.050781 0.61719-0.14453 1.5078-0.21484 2.8398-0.22656 6.1055-0.98828 8.2852-1.9375l0.32812-0.14063-0.55078-0.50391c-0.55859-0.51172-0.67578-0.72656-0.40234-0.72656 0.082031 0 0.14844 0.039062 0.14844 0.089844 0 0.11328 1.1602 1.0312 1.582 1.25 0.33203 0.17187 0.42969 0.45703 0.15625 0.45703-0.13672 0-0.14844 0.09375-0.089844 0.69922 0.066406 0.66406 0.058594 0.69922-0.14062 0.69922-0.16797 0-0.21094-0.066406-0.21875-0.32422-0.015625-0.49609-0.14062-0.82813-0.29688-0.78906-0.078125 0.019531-0.54688 0.14453-1.0391 0.27734-1.9297 0.51953-3.3711 0.80859-5.1914 1.0391-1.1172 0.14062-4.0117 0.23828-4.0742 0.13281zm-10.582-1.1914c-0.058594-0.058594 0.34766-0.70703 0.93359-1.4844 0.20703-0.27344 0.63281-1.0391 0.94531-1.6992 0.3125-0.66016 0.73828-1.5352 0.94531-1.9492 0.58984-1.1797 0.94922-2.5586 1.0508-4.0391 0.03125-0.4375 0.089844-1.2266 0.12891-1.7461 0.09375-1.1953 0.089844-3.1523-0.007812-3.25-0.074219-0.074218-1.8086-0.29297-4.6562-0.58984-0.78906-0.082031-1.7109-0.19531-2.0469-0.24609-0.33594-0.054688-1.0742-0.14453-1.6445-0.20703-0.57031-0.0625-1.1445-0.15234-1.2734-0.19922-0.13281-0.050781-0.67578-0.15625-1.2109-0.23828-0.89844-0.13672-2.9766-0.78906-3.9688-1.2461-0.89844-0.41406-1.6523-0.70312-2.6133-0.99609-1.4883-0.45703-2.4531-0.97656-3.3008-1.7812-0.67969-0.64453-0.86719-0.92188-0.61328-0.92188 0.058593 0 0.40234 0.24219 0.75781 0.53906 0.82812 0.6875 2.2383 1.375 3.8281 1.8633 0.6875 0.21094 1.6523 0.55859 2.1484 0.77344s1.0781 0.44531 1.2969 0.51172 0.73828 0.25 1.1484 0.40625 1.0625 0.33203 1.4492 0.39453c0.38281 0.0625 1.0273 0.19922 1.4258 0.30469 0.39844 0.10938 1.1836 0.26562 1.7461 0.34766 0.5625 0.085938 1.1797 0.19531 1.3711 0.24609 0.35156 0.09375 1.7656 0.27344 4.3438 0.55078 0.76953 0.082031 1.6016 0.17578 1.8477 0.20703 0.94531 0.11719 5.375 0.054688 7.0391-0.10156 0.93359-0.085938 1.9219-0.17969 2.1953-0.20703 0.27344-0.023437 1.7109-0.13672 3.1953-0.25 2.9102-0.21875 4.9961-0.42187 6.8906-0.66797 1.3359-0.17188 5.0469-0.71484 5.7422-0.83984 0.24609-0.042969 0.71875-0.125 1.0469-0.18359 1.9336-0.33594 2.8398-0.53906 3.6211-0.80469 0.48047-0.16406 1.0508-0.32812 1.2656-0.36719 0.51562-0.089843 1.3906-0.55859 1.707-0.91016 0.14062-0.15234 0.42969-0.46875 0.64844-0.69531 0.21875-0.23047 0.40234-0.47656 0.40625-0.55078 0.015626-0.23047 0.070313-0.51172 0.21875-1.1055 0.078126-0.31641 0.12109-0.57422 0.097657-0.57422-0.027344 0-0.46094 0.19531-0.96094 0.4375-1.0586 0.50781-1.6914 0.71875-4.6562 1.5586-0.95703 0.26953-4.25 0.73828-5.9922 0.84766-0.52344 0.035156-1.3086 0.10156-1.7461 0.15234-0.4375 0.050781-1.9453 0.11719-3.3438 0.14844-2.543 0.054687-5.0547 0.16797-7.7891 0.35156-4.375 0.28906-10.016 0.1875-13.43-0.24219-1.0977-0.13672-2.4219-0.30469-2.9453-0.36719-0.52344-0.066406-1.0625-0.16016-1.1992-0.21484-0.13672-0.054688-0.85547-0.19922-1.5977-0.32812-0.74219-0.12891-1.5273-0.28125-1.7461-0.34375s-0.96094-0.24219-1.6484-0.40234c-1.582-0.36719-4-1.1758-5.0547-1.6953-0.44531-0.21875-1.0312-0.59375-1.2969-0.82813-0.26562-0.23828-0.62109-0.53125-0.78516-0.65625-0.16406-0.125-0.51562-0.43359-0.77734-0.68359-0.26172-0.25391-0.50781-0.42578-0.55078-0.38672-0.039063 0.039062-0.078126 0.62109-0.085938 1.2891-0.019531 1.7227-0.011719 1.6641-0.22266 1.6641-0.3125 0-0.51562-1.2617-0.46484-2.9297 0.042969-1.4609 0.10547-1.6641 0.51172-1.6641 0.22656 0 0.28906 0.125 0.24609 0.47266-0.027343 0.22266 1.3047 1.4297 2.3047 2.0898 0.53906 0.35547 0.98047 0.67969 0.98047 0.72266 0 0.15234 1.668 0.91406 2.9453 1.3438 2.3086 0.77734 7.8008 2.0078 10.086 2.2578 0.60547 0.066406 1.6953 0.20703 2.4258 0.3125 0.73047 0.10547 1.7852 0.19141 2.3477 0.19531 0.55859 0 1.4453 0.046875 1.9648 0.097656 0.96875 0.097657 5.4023 0.13281 6.3906 0.046876 1.9492-0.16797 3.0977-0.24609 4.1953-0.29688 0.6875-0.03125 1.5391-0.074218 1.8984-0.10156 0.35547-0.027344 1.875-0.070312 3.3711-0.10156 1.5-0.03125 2.7773-0.074219 2.8438-0.10156 0.066406-0.023437 0.9375-0.11328 1.9336-0.19531 0.99609-0.082031 2.0273-0.19141 2.2969-0.24219 0.26562-0.050781 0.84375-0.14453 1.2852-0.21094 1.2891-0.1875 1.793-0.29688 2.3633-0.51172 0.29297-0.10938 0.84766-0.28906 1.2344-0.39844 2.082-0.58594 3.1523-1.0977 3.8242-1.832 0.28516-0.3125 0.51953-0.62891 0.51953-0.69922 0-0.070312 0.066406-0.18359 0.14844-0.25391 0.19922-0.16406 0.19141-0.69531-0.019532-1-0.29297-0.42969-1.6719-1.6914-1.8555-1.6914-0.26953-0.003907-0.20703-0.28906 0.082031-0.36328 0.14062-0.035157 0.36328-0.015626 0.49609 0.042968 0.32813 0.14844 1.7305 1.4961 1.8984 1.8242 0.46094 0.89062 0.5625 1.7227 0.25781 2.0977-0.13281 0.16016-0.17578 0.33594-0.14453 0.58594 0.023438 0.19531-0.023437 0.57422-0.10938 0.84375-0.082031 0.26953-0.125 0.53516-0.09375 0.58594 0.10156 0.16016-0.18359 1.6055-0.38281 1.9336-0.21094 0.35547-0.64844 0.71094-1.2344 1.0078-0.46484 0.23438-2.5664 0.9375-3.293 1.1055-1.7852 0.40625-4.75 0.88672-6.9062 1.1211-0.39453 0.042969-0.80078 0.10547-0.89844 0.13672-0.097656 0.03125-1.1484 0.125-2.3281 0.21094-1.1797 0.085938-2.7969 0.20312-3.5938 0.25781-0.79688 0.058594-2.0078 0.13281-2.6953 0.17188l-1.25 0.066406-0.074219 0.59766c-0.17578 1.4102-0.050781 3.5625 0.26562 4.6445 0.074219 0.24609 0.1875 0.69531 0.25391 1 0.066406 0.30078 0.16016 0.66016 0.21094 0.79688 0.050781 0.13672 0.10938 0.37109 0.13281 0.51562 0.13672 0.83203 0.80469 2.1953 1.3828 2.8359 0.15234 0.16797 0.46094 0.55078 0.67969 0.84766 0.22266 0.29688 0.46875 0.57422 0.54687 0.62109 0.1875 0.10547 0.1875 0.27344-0.003906 0.27344-0.25391 0-2.332-2.0078-2.8398-2.7461-0.5625-0.81641-0.79297-1.3477-1.1406-2.6445-0.41406-1.543-0.48828-2.0586-0.48047-3.332 0.003906-0.9375 0.0625-1.4258 0.25-2.1602 0.13281-0.52344 0.23438-0.95703 0.22266-0.97266-0.035156-0.042969-3.5078 0.17969-4.3516 0.28125-0.46484 0.054687-2.0234 0.12891-3.4609 0.16016l-2.6094 0.058594 0.10938 0.30859c0.12891 0.35938 0.15234 3.207 0.035156 4.1055-0.17969 1.3594-0.76562 3.0312-1.3945 3.9883-0.18359 0.27734-0.59375 1.0195-0.91016 1.6523-0.72266 1.4258-0.91016 1.7539-1.2969 2.2148-0.16797 0.20312-0.45312 0.57031-0.63281 0.82031-0.32031 0.44922-0.64453 0.70703-0.75 0.59766zm5.6875-11.445c-0.035156-0.39844-0.089844-0.89062-0.12891-1.0977-0.0625-0.35547-0.050782-0.375 0.19141-0.375 0.42578 0 0.52344 0.33594 0.48047 1.6719-0.015625 0.48047-0.035157 0.52344-0.25 0.52344-0.21875 0-0.23828-0.046875-0.29688-0.72266zm1.1836-0.32422c-0.074219-0.58203-0.027344-0.75 0.19531-0.75 0.19141 0 0.21875 0.070312 0.30078 0.72266 0.070312 0.56641 0.066406 0.57422-0.17969 0.57422-0.22656 0-0.25391-0.046875-0.31641-0.54688zm7.0352-9.6914c-0.51953-0.050782-4.4023-0.23438-6.2891-0.29688-0.90625-0.03125-2.3906-0.10156-3.293-0.16016-0.90625-0.054687-1.918-0.11719-2.2461-0.13281-3.1641-0.16797-4.0586-0.25391-5.8398-0.5625-3.6953-0.63672-5.7617-1.1445-6.5586-1.6016-0.77344-0.44531-0.46484-0.49609 0.47656-0.082031 0.93359 0.41016 2.9062 0.79688 5.5742 1.0977 0.41406 0.046875 1.3164 0.15234 2.0039 0.23438s2.3477 0.22266 3.6953 0.3125c1.3438 0.089844 2.8281 0.19922 3.293 0.24609s1.4102 0.09375 2.0977 0.10156c1.7578 0.019531 3.582 0.082031 6.2422 0.21484 3.9922 0.19922 7.668-0.019531 10.184-0.60547 0.4375-0.10156 1-0.21484 1.25-0.25391 0.24609-0.039062 0.78516-0.14844 1.1992-0.25 0.41016-0.10156 1.0195-0.23828 1.3477-0.30469 1.0312-0.20703 3.9688-1.2188 4.4922-1.5469 0.27344-0.17188 0.5625-0.43359 0.64062-0.57812 0.17969-0.33984 0.5-0.44922 0.66406-0.22656 0.11328 0.15234 0.14844 0.14844 0.46484-0.039062 0.46875-0.27734 0.58203-0.71094 0.56641-2.1641-0.007813-0.82422 0.039062-1.3906 0.16016-1.8711 0.10156-0.41016 0.13281-0.71094 0.078125-0.75-0.11328-0.074219-0.089844-0.89453 0.070313-2.6602 0.15625-1.7305 0.24219-4.6758 0.13672-4.625-0.97656 0.47656-1.3086 0.59375-1.9531 0.6875-0.5625 0.082031-0.97656 0.085938-1.5781 0.003907-1.3359-0.17969-1.9961-0.58594-2.5469-1.5586-0.15625-0.27344-0.30078-0.51953-0.32031-0.54297-0.074219-0.09375-0.49609 0.46094-0.57422 0.74609-0.17188 0.64453-0.32422 1.8164-0.28125 2.1875 0.023438 0.21484 0.12891 0.55469 0.22656 0.75 0.10156 0.19531 0.34375 0.65625 0.53516 1.0273 0.19141 0.36719 0.40234 0.91797 0.46484 1.2148 0.10547 0.50391 0.09375 0.59766-0.15625 1.2266-0.28516 0.72656-0.49219 1.0312-0.70312 1.0312-0.23047 0-0.23828-0.16406-0.039063-0.73438 0.23438-0.67188 0.23828-0.78906 0.050781-1.5195-0.14844-0.56641-0.41797-1.1836-0.91016-2.0664-0.28125-0.51172-0.35938-1.2227-0.21875-2.0586l0.074219-0.4375-0.32422 0.26563c-0.57422 0.47266-1.3242 0.75781-2.5391 0.97266-1.0039 0.17578-1.457 0.19922-3.0742 0.15625-1.6211-0.042969-2.0352-0.085938-2.8438-0.30469-2.75-0.74219-3.1406-0.88281-3.8438-1.3711-0.48438-0.33594-0.51172-0.34375-0.89453-0.21484-0.52734 0.17578-0.58984 0.25781-0.12891 0.17188 0.30469-0.054688 0.375-0.039063 0.375 0.085937 0 0.085938-0.14453 0.22656-0.32422 0.3125-0.71484 0.33984-1.1914 1.6602-1.2031 3.3477-0.011719 1.2969 0.14453 1.8398 0.80078 2.8203 0.76953 1.1445 0.875 1.3477 1.0195 1.957 0.15234 0.62891 0.10156 1.0938-0.23047 2.1133-0.46484 1.4375-0.55078 1.5977-0.88672 1.5977-0.26562 0-0.29297-0.027344-0.23047-0.22656 0.039062-0.125 0.17969-0.67578 0.30859-1.2227 0.41797-1.75 0.30469-2.4219-0.63281-3.7227-0.89844-1.25-1.0586-1.6758-1.0859-2.9648-0.015626-0.71484 0.023437-1.2852 0.11719-1.6406 0.078125-0.29688 0.12891-0.55469 0.11328-0.57031-0.015625-0.015624-0.45312 0.0625-0.97266 0.17578-1.7969 0.38672-4.7852 0.35938-6.8477-0.066406-0.78906-0.16406-2.3828-0.65625-2.7578-0.85547s-1.8164-1.2656-2.0664-1.5312c-0.12891-0.14062-0.29688-0.25391-0.37109-0.25391s-0.27344 0.21484-0.4375 0.47266c-0.25781 0.39844-0.29688 0.55078-0.26172 0.94531 0.050782 0.5625 0.46875 1.2891 1.2773 2.2227 0.62109 0.71875 0.96484 1.5391 0.84766 2.0273-0.066406 0.27344-0.54687 1.4922-0.82422 2.0938-0.09375 0.19922-0.22266 0.32422-0.33984 0.32422-0.21484 0-0.22656-0.035156-0.09375-0.27734 0.050781-0.09375 0.16797-0.44141 0.25781-0.76953 0.089844-0.32812 0.25391-0.77734 0.36719-1 0.38281-0.74609 0.18359-1.3867-0.75391-2.4375-1.2656-1.418-1.4531-2.5-0.60547-3.4922 0.33203-0.38672 0.35156-0.44141 0.20703-0.58203-0.14453-0.14453-0.18359-0.12891-0.45312 0.13672-0.39453 0.39453-0.66406 1.5391-0.65625 2.8281 0.003907 1.1133 0.21484 1.7695 0.89062 2.7539 0.52734 0.76953 0.71094 1.5977 0.50391 2.2852-0.15625 0.51563-0.71094 1.5352-1.2656 2.3281-0.28516 0.41016-0.38672 0.65234-0.38672 0.9375 0 0.39844-0.21875 0.54297-0.33984 0.22656-0.14844-0.38281-0.035156-0.73438 0.49609-1.543 0.78125-1.1797 1.1406-1.9609 1.1406-2.4648 0-0.57813-0.33984-1.4375-0.76953-1.9492-0.75781-0.90234-1.0234-1.957-0.83203-3.3047 0.070313-0.50391 0.17188-1.0195 0.21875-1.1523 0.085938-0.22266 0.070313-0.23438-0.1875-0.17969-0.33594 0.070312-2.9141 0.64062-3.4727 0.76562-0.53906 0.12109-2.0938 0.11719-2.6328-0.007813-0.73828-0.16797-1.2695-0.46875-1.6875-0.94141-0.42187-0.47656-0.59766-0.94922-0.35547-0.94922 0.074218 0 0.42188 0.28125 0.76562 0.62891 0.76953 0.76562 1.2969 0.96875 2.5 0.96875 0.62109 0 1.0352-0.070313 1.7617-0.29688 0.52344-0.16406 1.0391-0.30078 1.1484-0.30859 0.10938-0.003906-0.38672-0.13672-1.1016-0.28906-1.3086-0.28125-2.2695-0.66016-2.3789-0.94922-0.085937-0.21875 0.023438-0.19531 0.65234 0.14453 0.31641 0.17188 0.95312 0.38281 1.4922 0.49219 1.6016 0.33203 1.6797 0.32813 2.5312-0.074218 0.49219-0.23438 0.74219-0.40234 0.70703-0.48828-0.03125-0.082031 0.050781-0.15234 0.22266-0.1875 0.47656-0.10156 0.56641-0.125 0.87891-0.25 0.5-0.20312 0.76953-0.058593 1.3203 0.69922 0.29688 0.40625 0.90234 1.0234 1.4648 1.4883 1.0547 0.875 1.6797 1.1562 3.375 1.5273 2.4492 0.53516 6.0742 0.40625 7.3633-0.26172 0.34375-0.17578 0.94141-0.73828 0.86719-0.8125-0.027344-0.027344-0.28906 0.023437-0.58594 0.11328-0.29297 0.089843-1.2461 0.21094-2.1133 0.27344-1.7773 0.125-2.5508 0.046875-3.8594-0.39062-1.4258-0.48047-3.043-1.5117-2.8516-1.8203 0.10156-0.16797 0.20703-0.13281 0.53906 0.17578 0.42969 0.39844 2.0156 1.1641 2.9453 1.418 0.92969 0.25391 1.7578 0.28516 3.0977 0.11719 1.3516-0.16797 2.1016-0.37891 2.7891-0.78125 0.45312-0.26562 0.75391-0.35938 1.3516-0.42578 0.87891-0.097656 0.96094-0.078125 1.3633 0.28516 0.51562 0.46094 1.0039 0.67969 2.0039 0.89844 0.53125 0.11328 1.2852 0.29688 1.6758 0.40625 0.93359 0.25781 4.0234 0.28125 5.4648 0.039062 1.1211-0.1875 1.5703-0.38672 2.2383-0.99219 1.1445-1.0352 2.3789-1.668 2.9531-1.5156 0.13672 0.035156 0.35156 0.24609 0.49219 0.47266 0.3125 0.51562 0.93359 1.1484 1.3047 1.3438 0.67578 0.34766 2.2578 0.26953 3.0859-0.15234 0.44531-0.22656 1.125-0.97656 1.1289-1.2461 0.007812-0.35938-0.14844-3.3633-0.17969-3.5312-0.019531-0.089844-0.035156-0.30078-0.042968-0.46484-0.015626-0.52734-0.09375-0.5625-0.80859-0.33984-0.93359 0.29297-1.7969 0.46094-3.2539 0.63672-0.70703 0.085937-1.8047 0.22266-2.4336 0.30469-0.63281 0.082032-1.7305 0.14844-2.4453 0.14844-0.71875 0-1.9531 0.089844-2.7695 0.19922-0.80859 0.10938-2.1133 0.22266-2.8945 0.25391s-1.918 0.12109-2.5195 0.19531c-1.5156 0.19141-5.3047 0.29688-10.332 0.28906-3.4141-0.003906-4.4688-0.039063-5.3906-0.17578-0.63281-0.09375-1.7539-0.19531-2.4961-0.22656-2.4922-0.10938-8.6484-1.2891-9.1289-1.75-0.14453-0.14062 0.29688-0.10938 0.87891 0.058594 0.55859 0.16406 1.9336 0.43359 3.8086 0.74609 0.66016 0.10937 1.5352 0.27344 1.9453 0.35937 0.41016 0.085938 1.5117 0.19531 2.4453 0.24219s2.2148 0.13672 2.8438 0.19922c0.85156 0.082031 2.2969 0.082031 5.5898-0.003907 6.8711-0.17969 8.7578-0.26562 9.7852-0.43359 0.52344-0.085938 1.3516-0.16016 1.8477-0.16016 1.0703-0.003906 2.7852-0.15625 3.8945-0.34766 0.4375-0.078125 1.3984-0.14062 2.1289-0.14453s1.4961-0.027344 1.6992-0.054687c0.20312-0.027344 1.1328-0.14063 2.0664-0.25 2.4258-0.28906 3.4453-0.47266 4.0742-0.73438 0.39453-0.16406 0.76562-0.67187 0.76562-1.043 0-0.12891 0.050781-0.32422 0.10938-0.43359 0.089844-0.16797 0.0625-0.25-0.16406-0.48828-0.38281-0.39844-0.96484-0.64844-2.4062-1.0352-0.83594-0.22266-1.3203-0.40625-1.4648-0.55078l-0.21484-0.21875 0.23438-0.19531c0.24609-0.20312 0.66016-0.25781 0.75781-0.10156 0.03125 0.050782 0 0.11328-0.070312 0.14453-0.19531 0.082031 0.17578 0.33203 0.60547 0.41016 0.72656 0.12891 2.1758 0.58594 2.7305 0.86328 0.3125 0.15625 0.66016 0.41406 0.77344 0.57812 0.22656 0.31641 0.26953 0.80859 0.10547 1.1172-0.089843 0.16406-0.070312 0.19141 0.12891 0.19141 0.12891 0 0.3125 0.058594 0.41406 0.12891 0.16797 0.125 0.16406 0.14844-0.085937 0.44531l-0.26172 0.3125 0.15625 0.84375c0.22656 1.207 0.23828 7.332 0.019531 8.9023-0.21875 1.5664-0.30469 3.3164-0.16406 3.3633 0.070312 0.023437 0.11328 0.33984 0.11328 0.86719 0 0.73438 0.019531 0.82031 0.16797 0.76172 0.39453-0.16016 0.45703-0.10938 0.42969 0.32812-0.015625 0.25 0.058594 0.65234 0.17969 0.97656 0.11328 0.30469 0.20703 0.67578 0.20703 0.82422 0 0.375-0.74609 1.6797-1.0742 1.8906-0.14844 0.09375-0.31641 0.22656-0.37109 0.29297-0.17188 0.20312-0.85156 0.51172-2.0469 0.92578-0.63281 0.21875-1.5078 0.53906-1.9453 0.71094-1.3906 0.54688-1.543 0.59375-2.5273 0.79297-2.2031 0.44141-2.9961 0.60547-3.6133 0.74219-0.35547 0.078125-0.94141 0.19141-1.2969 0.24609-0.35547 0.054688-0.96484 0.15234-1.3477 0.21094-0.64844 0.10156-6.7539 0.21484-7.5391 0.14062zm-16.934-18.176c0.23047-0.089844 0.19531-0.23047-0.042968-0.16797-0.10938 0.027343-0.19922 0.09375-0.19922 0.14062 0 0.10547 0.03125 0.10938 0.24219 0.027344zm11.086 16.551c-1.2031-0.57813-2.1094-0.88672-2.9688-1.0078-1.2148-0.16797-1.5898-0.14453-1.9766 0.13672-0.1875 0.13672-0.44141 0.32031-0.56641 0.41406-0.32422 0.23828-0.98828 0.33594-1.5469 0.23438-0.4375-0.082031-0.72656-0.21484-1.6719-0.77344-0.69922-0.41406-2.5742-0.69922-2.7461-0.42188-0.035156 0.054687-0.34375 0.10156-0.68359 0.10156-0.79297 0-1.3789-0.28516-2.25-1.0977-1.0469-0.97656-1.7383-1.2109-2.2734-0.76562-0.51953 0.43359-0.89453 0.52344-2 0.47656-0.41797-0.015624-0.98047-0.50781-1.1328-0.99219-0.0625-0.20312-0.22266-0.53516-0.35156-0.73828-0.20312-0.31641-0.29688-0.37109-0.65625-0.39844-0.55469-0.039062-0.60938-0.24219-0.09375-0.32812 0.82031-0.14062 1.3125 0.18359 1.8711 1.2266 0.15625 0.29297 0.40625 0.60547 0.55469 0.69531 0.29297 0.17578 0.46875 0.14844 1.4766-0.22656 0.92578-0.34375 1.7695-0.0625 3.293 1.1055 0.87891 0.67188 1.1523 0.77734 1.7383 0.68359 0.27734-0.046875 0.93359-0.082031 1.4531-0.082031 1.1133 0.003906 1.9961 0.20703 3.0625 0.71484l0.73438 0.35156 0.75781-0.38672c0.625-0.31641 0.88281-0.39062 1.4727-0.42187 1.2617-0.0625 2.7383 0.29297 4.6016 1.1133 0.8125 0.35938 1.4492 0.38281 1.9102 0.078125 1.2969-0.86719 3.043-0.94531 5.4961-0.24219 0.70312 0.19922 0.78906 0.17578 1.7773-0.53125 0.48438-0.34766 0.51953-0.35547 1.25-0.3125 0.58594 0.035156 0.88281 0.11328 1.375 0.36328 0.57812 0.29297 0.64062 0.30469 0.85547 0.16797 0.125-0.082031 0.32031-0.27344 0.43359-0.42578 0.11328-0.15234 0.44922-0.41016 0.74219-0.57422 0.48828-0.26953 0.625-0.29688 1.4375-0.29688 0.51953 0 0.99219 0.054688 1.1172 0.125 0.12109 0.066407 0.61328 0.14844 1.0977 0.17969l0.87891 0.058593 0.34766-0.43359c0.19141-0.23828 0.46484-0.55078 0.60938-0.69922 0.34375-0.35547 1.2695-0.62109 2.0352-0.58594 0.32812 0.015626 0.71484 0.03125 0.85547 0.03125 0.24609 0 0.76562-0.27344 1.4805-0.78516 0.37891-0.26953 1.0117-0.32812 1.1953-0.10938 0.15234 0.18359-0.066406 0.36719-1.0117 0.85547-0.92187 0.47656-1.4297 0.5625-2.2227 0.37891-0.49219-0.11328-0.6875-0.11719-1.082-0.015625-0.56641 0.14844-0.75 0.29688-1.2148 0.99219-0.51172 0.76953-0.97266 0.90625-2.3516 0.6875-1.8906-0.30078-2.0469-0.31641-2.2812-0.22656-0.13281 0.050782-0.56641 0.41016-0.96875 0.80078-0.92578 0.89453-1.1016 0.91406-2.3477 0.24609-0.47266-0.25391-0.95703-0.46094-1.0703-0.46094-0.11719 0-0.46094 0.22656-0.76953 0.50391-0.65625 0.59375-0.88281 0.69531-1.5664 0.69531-0.51562 0-0.73047-0.050781-1.8242-0.4375-0.47656-0.16797-0.83203-0.21094-1.7461-0.21094-1.2305 0-1.1602-0.019531-2.3477 0.70312-0.61328 0.37109-1.2227 0.33594-2.2031-0.13672zm-20.762-2.6211c-1.1523-0.97266-1.4062-1.3906-0.84766-1.3906 0.23438 0 0.32422 0.058593 0.40234 0.26172 0.054688 0.14453 0.39844 0.57031 0.76172 0.94922 0.8125 0.83984 0.60547 0.95703-0.31641 0.17969zm-5.043-0.44922c0-0.28125 0.875-0.96484 2.6992-2.1055 0.5625-0.35156 1.2305-0.49219 1.6289-0.33984 0.34766 0.13281 0.33984 0.32813-0.011719 0.29297-0.37109-0.039062-0.83203 0.16016-1.6719 0.71484-0.38281 0.25781-0.96875 0.61328-1.2969 0.79297-0.32812 0.17969-0.69141 0.41016-0.80469 0.51562-0.19141 0.17578-0.54297 0.25781-0.54297 0.12891zm31.832-4.3203c0.046874-1.4609 0.011718-1.5625-0.87891-2.6914-0.27344-0.34375-0.54688-0.8125-0.60938-1.043-0.22266-0.82031 0.097656-2.1641 0.55859-2.3398 0.24609-0.09375 0.25391 0.003906 0.035156 0.42188-0.16797 0.32422-0.19922 0.52344-0.16406 1.1406 0.046875 0.83594 0.23828 1.2695 0.875 1.9609 0.55078 0.59766 0.71094 0.97266 0.78516 1.8242 0.10547 1.25-0.074219 2.0039-0.47656 2.0039-0.14844 0-0.16016-0.13672-0.125-1.2812zm-27.453 0.0625c0.12109-0.32422 0.44141-0.37891 0.39453-0.066406-0.023438 0.15234-0.10938 0.24609-0.25781 0.26562-0.19531 0.027344-0.21484 0.003907-0.13672-0.19922zm0.011719-2.0547c0-0.42578-0.050781-1.1797-0.10938-1.6719-0.058594-0.49609-0.097656-1.4375-0.082031-2.0977s0.007813-1.8516-0.015625-2.6445c-0.066406-2.2344-0.050781-4.582 0.03125-5.2422 0.089844-0.72266 0.41797-1.7188 0.65234-2 0.09375-0.11328 0.32812-0.29297 0.51953-0.39844 0.19141-0.10547 0.64062-0.41406 0.99609-0.68359 0.71875-0.53906 1.0703-0.70703 2.25-1.0586 0.4375-0.13281 0.80859-0.24609 0.82422-0.25391 0.125-0.074219-0.76563-1.9453-1.1094-2.3242-0.17578-0.19531-0.1875-0.24219-0.0625-0.32031 0.39453-0.24609 0.94531 0.29688 1.6406 1.6133 0.44531 0.84766 0.46094 0.86328 0.71484 0.75 0.24609-0.10938 0.25391-0.13672 0.19531-0.76562-0.09375-1.0234-0.35156-2.5742-0.5625-3.4219-0.10547-0.42578-0.19531-0.96484-0.19531-1.1992 0-0.23047-0.085937-0.82422-0.18359-1.3203-0.23047-1.125-0.25391-2.0117-0.11328-4.0664 0.11719-1.6836 0.19922-2.0742 0.4375-2.0742 0.22266 0 0.25391 0.19922 0.27344 1.8711 0.023437 1.9336 0.125 3.1367 0.39062 4.625 0.054687 0.30469 0.085937 1.293 0.074219 2.1953-0.027344 1.6367 0.039062 2.2227 0.48047 4.4609 0.078125 0.39453 0.14453 0.93359 0.14453 1.1992 0 0.41797 0.035156 0.50391 0.29687 0.67578 0.58203 0.39062 0.48438 1.4414-0.19141 2.0938-0.26172 0.25-0.76953 0.45312-1.1289 0.45312-0.25781 0-0.21484-0.19141 0.070312-0.29688 0.375-0.14453 0.58203-0.53906 0.58984-1.1484 0.003906-0.39453-0.042968-0.59375-0.17969-0.74609-0.23438-0.26172-0.35547-0.26172-0.35547-0.007812 0 0.10937 0.046875 0.19922 0.10547 0.19922 0.058593 0 0.078125 0.042969 0.042969 0.10156-0.035157 0.054687-0.21875 0.10156-0.41016 0.10156-0.29688 0-0.36328-0.042969-0.45312-0.30078-0.12891-0.375-0.22266-0.375-0.58984-0.007812-0.19531 0.19531-0.29297 0.39453-0.29297 0.59375 0 0.37109-0.16406 0.48828-0.38281 0.27344-0.10547-0.10547-0.16016-0.31641-0.15234-0.58203 0.011718-0.46484 0.30859-0.78516 0.91016-0.98438 0.33594-0.11328 0.39062-0.27734 0.26172-0.76562-0.0625-0.23047-0.40234-0.30859-0.58984-0.13672-0.050781 0.046875-0.27344 0.14453-0.49609 0.21484-0.41797 0.13281-1.0898 0.46875-1.5977 0.79688-0.16406 0.10938-0.41016 0.24219-0.55078 0.30078-0.62891 0.26172-1.1211 0.55078-1.207 0.71484-0.18359 0.34375 0.003906 0.6875 0.48438 0.89453 0.57812 0.25 0.47656 0.35938-0.13672 0.14844-0.25781-0.089844-0.48437-0.14844-0.49609-0.13672-0.12891 0.12891-0.22266 2.8516-0.21484 6.1641 0.015625 5.0977-0.085937 6.9883-0.38281 6.9883-0.11328 0-0.14453-0.16406-0.14453-0.77344zm6.6016-14.578c0.015625-0.12891 0.019531-0.55469 0.003906-1-0.011719-0.40234-0.027344-0.41797-0.21875-0.30078-0.20312 0.125-0.20703 0.20312-0.042969 1.0508 0.019531 0.09375 0.035157 0.20703 0.039063 0.24609 0.003906 0.042968 0.050781 0.074218 0.10938 0.074218 0.054687 0 0.10547-0.035156 0.10938-0.074218zm35.27 13.078c0.027344-0.097656 0.078125-0.48047 0.11328-0.85547 0.0625-0.625 0.085938-0.67578 0.28125-0.64844 0.19922 0.027343 0.21484 0.078125 0.17969 0.625-0.046875 0.77734-0.15625 1.0508-0.41797 1.0508-0.15234 0-0.19531-0.046875-0.16016-0.17578zm-10.418-5.3242c-0.57031-0.085937-1.5391-0.46484-2.2695-0.89453-0.79688-0.46875-0.38672-0.5625 0.47266-0.10938 1.043 0.55078 1.7188 0.71094 2.9883 0.70703 2.1289 0 5.0859-0.50781 5.6094-0.96094 0.30469-0.26562 0.89062-0.11328 0.89062 0.23047 0 0.66797-5.3086 1.375-7.6875 1.0234zm-17.332-3.5273c-0.71484-0.33203-0.97266-0.72656-0.91797-1.3984 0.023438-0.30078 0.125-0.63672 0.23828-0.78906 0.17187-0.23437 0.98828-0.64844 1.6055-0.82031 0.11719-0.03125 0.33203-0.21094 0.47656-0.39844 0.33984-0.44531 1.332-1.207 1.9062-1.4609 0.48828-0.21484 1.2539-0.22656 1.3203-0.019531 0.023438 0.066406-0.11719 0.1875-0.3125 0.26562-0.19141 0.082031-0.69531 0.49609-1.1211 0.92188-0.69531 0.70312-0.75 0.78516-0.57813 0.88281 0.10547 0.058594 0.33984 0.25781 0.52734 0.44922 0.32031 0.32812 0.33594 0.37109 0.28125 0.89453-0.035156 0.35938-0.11719 0.59766-0.23047 0.67969-0.20703 0.15234-0.59766 0.16797-0.68359 0.027344-0.035156-0.054688-0.015625-0.10156 0.042968-0.10156 0.26563 0 0.003907-1.0078-0.32812-1.2852-0.14453-0.12109-0.19531-0.11328-0.35938 0.035156-0.10547 0.097656-0.24609 0.32812-0.30469 0.51172-0.13672 0.41406-0.45312 0.45312-0.78906 0.09375-0.16797-0.17969-0.21875-0.32812-0.18359-0.55078 0.054687-0.36328 0.042969-0.36328-0.32422-0.10156-0.17188 0.125-0.26172 0.26172-0.23047 0.34766 0.03125 0.082032 0.007813 0.14453-0.050781 0.14453s-0.082031 0.066406-0.050781 0.14844c0.035156 0.09375 0 0.14844-0.10156 0.14844-0.19531 0-0.19531 0.019532-0.019531 0.44531 0.23047 0.55078 0.82422 0.875 1.7109 0.92969 1.0742 0.070313 1.0234 0.22266-0.074218 0.21875-0.76562 0-1.0195-0.042968-1.4375-0.23828zm11.582-1.0938c-0.81641-0.30469-1.1797-0.58203-1.3086-0.99609-0.15234-0.49609 0.074219-0.89844 0.73438-1.3203 0.64453-0.41406 1.25-0.5625 2.1602-0.53125 0.63281 0.019532 0.69922 0 0.96875-0.26953 0.15625-0.16016 0.46094-0.58203 0.67578-0.94141 0.33203-0.55469 0.4375-0.65234 0.70703-0.67969 0.29297-0.027343 0.3125-0.007812 0.3125 0.28125 0 0.35938-0.16797 0.71875-0.70312 1.5117l-0.37891 0.5625 0.29297 0.28125c0.21094 0.19922 0.29297 0.375 0.29297 0.61328 0 0.39844-0.27344 0.57031-0.44141 0.27734-0.058594-0.10156-0.22266-0.31641-0.35938-0.48047l-0.25391-0.29688-0.42578 0.21875c-0.27734 0.14062-0.46094 0.31641-0.52734 0.50391-0.12109 0.34375-0.32422 0.44141-0.58984 0.27734-0.125-0.078125-0.19531-0.23438-0.19531-0.43359 0-0.25391 0.078125-0.36328 0.42578-0.60156l0.42578-0.28906-0.41797-0.03125c-0.83594-0.0625-1.8242 0.74219-1.6641 1.3516 0.054687 0.21484 0.92578 0.76953 1.3594 0.86719 0.15234 0.035157 0.46875 0.011719 0.71094-0.046874 0.24219-0.0625 0.54297-0.09375 0.67578-0.070313 0.20312 0.035156 0.17188 0.070313-0.24609 0.25781-0.63281 0.28516-1.4219 0.27734-2.2227-0.019532zm11.281-0.67187c-0.79297-0.23047-1.0859-1.0195-0.5625-1.5078 0.32422-0.30469 1.2969-0.67969 1.7539-0.67969 0.21484 0 0.36328-0.066407 0.44531-0.19922 0.17188-0.27734 0.52344-0.26562 0.52344 0.019531 0 0.12109 0.14063 0.33594 0.32422 0.49219 0.26172 0.21875 0.30078 0.29687 0.19922 0.40234-0.070312 0.070313-0.125 0.22656-0.125 0.34766 0 0.25781-0.097656 0.30078-0.69922 0.29297-0.44531-0.003906-0.44922-0.007812-0.54297-0.42969-0.10547-0.47656-0.13672-0.48828-0.58594-0.26172-0.69531 0.35156-0.84375 0.69922-0.48438 1.1445 0.13672 0.16797 0.30078 0.23438 0.625 0.24609 0.55078 0.023437 0.58594 0.039063 0.33984 0.14453-0.25781 0.10938-0.8125 0.10547-1.207-0.007812zm4.8711-4.2773c-0.054688-0.16016-0.085938-0.30469-0.066406-0.32422 0.019531-0.019531 0.058594-0.48438 0.089844-1.0312 0.13672-2.332 0.17578-2.8203 0.26562-3.293 0.050782-0.27344 0.10547-1.4844 0.11719-2.6875l0.023438-2.1875-0.5-0.11328c-0.27344-0.0625-0.6875-0.21094-0.91797-0.33203-0.66016-0.34375-0.74609-0.30469-1.3125 0.57812-0.71094 1.1055-0.67969 1.6602 0.16016 2.7617 0.77344 1.0117 0.92969 1.5859 0.66406 2.457-0.12109 0.39844-0.8125 0.47656-0.71094 0.078125 0.0625-0.24609-0.14844-1.3789-0.31641-1.6875-0.070313-0.12891-0.32031-0.48828-0.55469-0.79688-0.23438-0.30859-0.45703-0.66406-0.49609-0.78516-0.089843-0.28125-0.15234-0.28125-0.73437 0.019532-1.3711 0.70312-1.707 0.79688-2.9336 0.81641-1.9258 0.027344-3.4922-0.28516-4.4609-0.89844-0.39453-0.24609-0.92578-0.85547-1.0508-1.1992-0.066406-0.1875-0.070313-0.1875-0.20703 0-0.074219 0.10547-0.12109 0.21484-0.10547 0.24219 0.019531 0.03125-0.054687 0.36719-0.16016 0.74609-0.10547 0.38281-0.19141 0.82031-0.19141 0.97266 0 0.34766 0.39453 0.94531 0.84375 1.2734 0.79297 0.58203 1.0078 1.5859 0.5625 2.6445-0.57422 1.375-1.0391 1.957-1.3281 1.668-0.085938-0.085938-0.027344-0.41016 0.25391-1.3398 0.51953-1.7266 0.48828-2.0352-0.28125-2.7734-0.5-0.48047-0.75391-0.91797-0.76953-1.3242l-0.011718-0.34375-0.37109 0.35938c-0.92188 0.89453-3.5234 1.2656-5.6133 0.80469-1.5508-0.34375-2.2695-0.58984-3.5078-1.2109-1.293-0.64453-1.8945-1.0273-2.4141-1.5312l-0.33594-0.32422-0.26562 0.38281c-0.50391 0.72656-0.4375 1.8906 0.13672 2.4688 0.37891 0.38281 0.80078 1.1445 0.86328 1.5703 0.070313 0.46875-0.046875 0.98438-0.32812 1.4453-0.81641 1.3398-1.3672 2.0977-1.5312 2.0977-0.10156 0-0.18359-0.066407-0.18359-0.14844 0-0.25781 0.32031-0.97656 0.71484-1.6055 0.82031-1.3125 0.85547-1.8047 0.17969-2.7383-0.92578-1.2891-0.91797-1.2656-0.84375-1.9023l0.066406-0.58203-0.83203 0.34375c-0.45703 0.1875-0.89062 0.34375-0.96094 0.34375-0.070312 0-0.34766 0.11328-0.61719 0.25-0.77734 0.39453-1.3047 0.47266-2.3711 0.35547-1.168-0.12891-1.9648-0.40234-2.4062-0.82422-0.35156-0.33594-0.85938-1.3281-0.76172-1.4844 0.089844-0.14453 0.23047-0.003906 0.48828 0.49219 0.46484 0.89844 0.92969 1.2383 2.0352 1.4727 1.0312 0.21875 1.6367 0.1875 2.2383-0.11719 0.28516-0.14453 0.76562-0.34766 1.0703-0.45313 1.0859-0.375 2.3008-1.2812 2.3008-1.7188 0-0.035156-0.21484 0.046876-0.47266 0.17969-0.26172 0.13281-0.98047 0.38672-1.5977 0.55859l-1.125 0.31641-1.6719-0.16016c-1.9609-0.1875-2.3008-0.27734-2.8398-0.75391-0.36328-0.32031-0.39453-0.39063-0.33203-0.67969 0.089844-0.40234 0.30078-0.41406 0.4375-0.023438 0.14453 0.41406 0.87891 0.86328 1.5391 0.9375 0.28906 0.035157 1.0391 0.066407 1.6719 0.074219 1.0781 0.011719 1.2109-0.011719 2.1953-0.35547 0.57812-0.19922 1.2148-0.41406 1.4141-0.46875 0.19922-0.058593 0.61328-0.32422 0.91406-0.59375 0.69531-0.62109 1.0195-0.64844 1.4414-0.13672 0.41797 0.50781 1.2188 0.98828 2.1562 1.2969 0.44922 0.14844 1.0391 0.37109 1.3125 0.49219 0.69922 0.31641 1.4102 0.44922 2.457 0.46094 1.1211 0.011718 1.1758 0.21094 0.082031 0.30469-1.0078 0.085938-1.9219 0.011719-2.4766-0.20703-1.293-0.51172-2.6992-1.1641-3.0508-1.418-0.21484-0.15625-0.41406-0.26172-0.44141-0.23438s0.011719 0.23047 0.085937 0.45703c0.34375 1.043 2.8828 2.4883 5.3398 3.0391 1.0273 0.23047 1.332 0.26172 2.1484 0.20703 1.1328-0.074219 2.1133-0.28906 2.5586-0.56641 0.17969-0.10938 0.5625-0.52344 0.85547-0.92188 1.0898-1.4805 1.6562-2.0664 2.0625-2.1523 0.32031-0.066406 0.32422-0.074218 0.14844-0.23438-0.17578-0.16016-0.21484-0.15234-0.73438 0.125-2.0273 1.0859-2.5586 1.2812-3.8594 1.4375-0.71094 0.085938-0.75-0.085937-0.054688-0.23438 0.74219-0.16016 1.4023-0.39844 1.7344-0.625 0.14453-0.10156 0.30859-0.18359 0.36719-0.18359 0.054687 0 0.11719-0.035156 0.13281-0.074218 0.054688-0.11719 0.68359-0.55859 1.293-0.90625 0.44531-0.25391 0.67578-0.31641 1.1211-0.31641 0.54297 0 0.56641 0.011718 0.8125 0.39844 0.13672 0.21875 0.39453 0.46875 0.56641 0.55859 0.79688 0.41016 3.8125 0.58594 4.875 0.28125 0.94922-0.27344 1.0273-0.28125 0.98047-0.12891-0.023438 0.078126-0.28906 0.24219-0.58594 0.36719-0.51953 0.21875-0.63281 0.22656-2.7383 0.19141-1.9336-0.03125-2.2695-0.0625-2.8164-0.25391-0.33984-0.11719-0.64062-0.21484-0.66406-0.21484-0.023437 0 0.035157 0.20703 0.13281 0.46094 0.52734 1.3828 1.7266 1.9297 4.3242 1.9648l1.4219 0.019531 0.94922-0.45703c1.2773-0.61719 1.5508-0.85938 1.6328-1.4531 0.078125-0.55469 0.20703-0.73828 0.52734-0.73828 0.17969 0 0.31641-0.125 0.54688-0.5 0.23047-0.375 0.36719-0.5 0.54687-0.5 0.27344 0 0.30078-0.082031 0.10938-0.33984-0.125-0.16797-0.14844-0.16016-0.42578 0.12891-0.16016 0.17188-0.37109 0.30859-0.46875 0.30859-0.28906 0-0.20312-0.39063 0.16406-0.75781 0.28125-0.28125 0.41406-0.33984 0.76172-0.33984 0.38672 0 0.47266 0.050781 0.93359 0.54688 0.46484 0.49609 1.1602 0.92188 1.3359 0.8125 0.085937-0.054687-0.023438-2.8047-0.125-3.1836l-0.074219-0.27344-0.28906 0.24219c-0.42969 0.35938-1.1406 0.51953-3.1367 0.70703-0.98828 0.09375-2.2461 0.25-2.7969 0.34766-1.6484 0.30078-3.1641 0.48828-5.7031 0.70312-2.2188 0.1875-2.6875 0.19531-5.9922 0.097656-1.9688-0.058593-4.0508-0.17188-4.625-0.25391-0.57422-0.078125-1.2031-0.14453-1.3984-0.14844-0.19531 0-0.41016-0.035157-0.47266-0.074219-0.0625-0.039063 2.3164-0.074219 5.293-0.074219 3.9258 0 5.6133-0.035156 6.1562-0.12891 0.41016-0.070313 1.3555-0.16797 2.0977-0.21875 0.74219-0.050782 1.9336-0.20312 2.6445-0.34375 0.71484-0.14062 1.6289-0.30469 2.0312-0.36719l0.73047-0.11328-0.19922-0.21484c-0.46875-0.5-0.39453-1.2578 0.17188-1.8281l0.38281-0.38281 0.066407-1.9453c0.039062-1.0898 0.13281-2.2227 0.21094-2.5703 0.10938-0.46484 0.14062-1.2539 0.13281-3.0742l-0.011719-2.4492-0.41406 0.03125c-0.28516 0.019531-0.40234 0.074219-0.38281 0.16406 0.0625 0.30469-0.089844 0.51562-0.38672 0.51562-0.28906 0-0.29297-0.007813-0.26172-0.47266 0.027344-0.41797-0.003906-0.5-0.25781-0.71484-0.33594-0.28516-0.40625-0.22266-0.55859 0.48828-0.10547 0.5-0.078125 0.75 0.19922 1.707 0.33203 1.1562 0.28906 2.3359-0.10156 2.7266-0.27734 0.27734-0.51953 0.15234-0.41406-0.21484 0.11328-0.39844 0.046875-1.6719-0.14062-2.5625-0.085938-0.41016-0.15234-0.85938-0.15234-0.99609 0-0.37891 0.29297-1.1797 0.52734-1.4336 0.14844-0.16016 0.17578-0.25781 0.10156-0.33203s-0.18359-0.003906-0.375 0.24609c-0.14844 0.19531-0.24219 0.39844-0.21094 0.44922 0.03125 0.054687-0.039063 0.12891-0.16406 0.16797-0.12109 0.039063-0.50391 0.28906-0.85156 0.55078-0.34375 0.26562-0.78906 0.51172-0.98438 0.54688-1.3164 0.24609-3.9844-0.50391-4.9219-1.3867l-0.33594-0.31641 0.0625 0.26172c0.046875 0.20313 0.019531 0.27344-0.11719 0.30859-0.20703 0.054688-0.41797 0.67188-0.41797 1.2188 0 0.20312 0.089844 0.67188 0.19922 1.0352 0.39453 1.3086 0.40625 2.4922 0.03125 3.2852-0.085938 0.18359-0.53516 0.71484-0.99219 1.1719-0.45703 0.46094-0.83594 0.88281-0.83594 0.94141s-0.11328 0.10547-0.25 0.10547c-0.47266 0-0.29297-0.34375 0.75391-1.457 0.80859-0.85938 0.99609-1.332 0.99219-2.4805-0.003906-0.5625-0.066406-0.97266-0.21094-1.3555-0.11328-0.30078-0.23047-0.71875-0.25781-0.92188-0.027343-0.20703-0.058593-0.375-0.066406-0.375-0.007812 0-0.32812 0.16016-0.71484 0.35547-0.78125 0.39453-1.6719 0.64062-2.3398 0.64062-1.332 0.003906-3.8398-0.83984-4.8125-1.6172-0.46484-0.375-0.78516-0.31641-0.78516 0.13672 0 0.46484 0.27344 0.9375 0.75 1.3008 0.56641 0.42969 0.80859 0.88281 0.88672 1.6523 0.0625 0.61328 0.058594 0.625-0.18359 0.625-0.21094 0-0.25781-0.058594-0.30859-0.375-0.16406-1.0039-0.14453-0.97656-1.3477-2.0039-0.32813-0.28125-0.34766-0.33594-0.34766-0.90625 0-0.69531-0.15234-0.75781-0.28906-0.12109-0.082031 0.38281-0.054688 0.48828 0.33203 1.2305 0.38672 0.75 0.41797 0.86328 0.39844 1.5039-0.015626 0.45312-0.089844 0.83203-0.22266 1.0977-0.26172 0.52734-1.6367 1.9727-1.8789 1.9727-0.26953 0-0.23047-0.15234 0.16797-0.67187 0.19531-0.25391 0.49609-0.75391 0.67578-1.1133 0.26953-0.55078 0.32031-0.76562 0.32031-1.3633 0-0.64453-0.035157-0.76172-0.375-1.3164-0.20703-0.33203-0.375-0.69922-0.375-0.81641 0-0.23828-0.035157-0.25-0.3125-0.10156-0.28906 0.15234-1.5352 0.125-2.2109-0.054688-0.31641-0.082031-0.90234-0.30469-1.2969-0.49609-0.39453-0.1875-0.72656-0.33594-0.73438-0.32422-0.015625 0.019531 0.12109 1.6797 0.25391 3.0625 0.050782 0.52344 0.074219 2.1602 0.054688 3.6445-0.023438 1.5938 0 2.7578 0.058594 2.8438 0.066406 0.10547 0.09375 0.11328 0.097656 0.019531 0.003906-0.20312 1.1055-1.2148 1.5977-1.4648 0.57812-0.29297 1.043-0.39062 1.2656-0.26953 0.14844 0.082031 0.082031 0.14062-0.39844 0.37109-0.56641 0.26953-1.082 0.76562-1.4648 1.4141-0.19141 0.32422-0.19141 0.32812 0 0.43359 0.21875 0.11719 0.52344 0.66406 0.66797 1.1953 0.13281 0.49609-0.011718 0.98047-0.32422 1.0586-0.32031 0.082031-0.65234-0.03125-0.45703-0.15234 0.11328-0.070312 0.10547-0.17188-0.050781-0.59766-0.23828-0.66406-0.44141-0.85156-0.44141-0.41406 0 0.44922-0.26953 0.51953-0.56641 0.15234-0.12891-0.16016-0.23438-0.39062-0.23438-0.51562s-0.035156-0.22266-0.074219-0.22266c-0.14453 0.007812-0.51172 0.36719-0.71484 0.70703-0.26172 0.42969-0.26562 0.75391-0.007812 0.91016 0.32422 0.20312 0.23047 0.30859-0.22266 0.24609-0.875-0.11719-1.1211-0.92578-0.52344-1.7109 0.15625-0.20313 0.45703-0.45703 0.67578-0.57031 0.27734-0.14062 0.36328-0.23047 0.28906-0.30859-0.074219-0.074219-0.27734-0.0625-0.6875 0.046875-0.32031 0.085938-0.77344 0.18359-1.0117 0.21875-0.52344 0.074219-1.0859 0.35156-1.5625 0.76562-0.45703 0.40234-0.49219 0.86328-0.078125 1.1016 0.55078 0.31641 1.7109 0.58203 3.4102 0.77344 0.95703 0.10938 1.7852 0.25 1.8477 0.30859 0.24219 0.24219-2.9688-0.125-4.4844-0.51562-0.76562-0.19922-1.4805-0.49609-1.582-0.65625-0.027343-0.042969-0.074219-0.24609-0.10547-0.45312-0.054687-0.34766-0.023437-0.41406 0.39063-0.82812 0.55859-0.55859 1.1719-0.82812 2.1445-0.94922 1.6953-0.20703 1.6211-0.18359 1.5586-0.53125-0.0625-0.35156-0.12891-1.4609-0.21484-3.5508-0.03125-0.79297-0.10156-1.7812-0.15234-2.1953-0.17969-1.4297-0.32031-3.7539-0.32031-5.2461 0-1.2109 0.042969-1.6602 0.21875-2.3477 0.35547-1.3828 0.55078-1.6914 1.3125-2.0664 0.83203-0.40625 1.5039-0.63281 1.8906-0.63281 0.25 0 0.30469-0.039063 0.30469-0.22656 0-0.60547 0.77344-1.3633 1.7539-1.7266 0.51172-0.1875 0.75-0.33594 0.87109-0.53906 0.26562-0.45312 0.97266-1.1406 1.5781-1.5352 0.83594-0.54688 1.5664-0.46875 0.8125 0.085937-0.46484 0.34375-1.2188 1.1445-1.4531 1.5352l-0.17578 0.29297 0.42578 0.19141c0.23438 0.10547 0.58203 0.35547 0.77734 0.55469 0.34766 0.36328 0.35156 0.36328 1 0.30078 0.35547-0.035156 0.69922-0.10156 0.75781-0.14844 0.11328-0.085937 0.26172-1.1523 0.50391-3.582 0.042968-0.41016 0.078124-0.76953 0.085937-0.79688 0.058594-0.26172 0.20312-0.58203 0.32812-0.72266 0.089844-0.10547 0.16016-0.40234 0.17188-0.74219l0.019531-0.57031-0.23438 0.52734c-0.12891 0.28906-0.25 0.67578-0.26953 0.85156-0.046875 0.42578-0.10547 0.50391-0.46094 0.65234-0.44922 0.18359-0.98437 0.054688-1.0625-0.25781-0.11719-0.47266 0.007813-1.3789 0.23828-1.6914 0.12109-0.16406 0.28516-0.62891 0.37109-1.0312 0.085937-0.40234 0.28125-1.0547 0.4375-1.4492 0.15625-0.39062 0.3125-0.83203 0.34766-0.98047 0.11719-0.48438 0.32422-0.60156 0.94141-0.52344 0.51562 0.0625 0.54688 0.054687 0.47266-0.12109-0.17188-0.39844-0.26953-1.4805-0.16016-1.7617 0.12891-0.33594 0.34766-0.42578 1.2773-0.51562 0.70703-0.066406 0.72266-0.066406 0.89844 0.20703 0.12891 0.19922 0.17188 0.41797 0.14844 0.77734-0.039063 0.59375-0.039063 0.86328 0.003906 1.4023 0.03125 0.39844 0.03125 0.39844 0.51172 0.45312 0.50391 0.058594 0.69922 0.22266 0.625 0.52734-0.023438 0.10156 0.070312 0.41016 0.21484 0.69141 0.23047 0.46094 0.82812 2.5703 0.82812 2.9258 0 0.27734-0.41016 0.15625-0.53125-0.15625-0.10547-0.28125-0.26953-0.40625-0.26953-0.20703 0 0.097656 0.32812 1.1445 0.44922 1.4336 0.054688 0.13281 0.023438 0.17578-0.12109 0.17578-0.28125 0-0.46875-0.25781-0.76172-1.0469l-0.25781-0.69922 0.003906 1.0977c0.007813 2.6172 0 2.7461-0.16016 2.7461-0.12891 0-0.14062 0.10938-0.089844 0.67578 0.035157 0.37109 0.097657 0.83203 0.13281 1.0234 0.078125 0.38672 0.11719 0.39453 1.2812 0.25 0.48438-0.058594 0.54297-0.097656 0.76172-0.48047 0.12891-0.23047 0.33594-0.84375 0.45703-1.3672 0.12109-0.52344 0.44531-1.543 0.71875-2.2695l0.5-1.3203-0.26562-1.2422-0.30078 0.63672c-0.5625 1.1953-0.72266 1.4531-0.93359 1.4844-0.19531 0.03125-0.1875-0.015625 0.14062-0.75 0.60938-1.3594 0.77734-1.6328 1.043-1.6992 0.13672-0.035156 0.38281-0.14453 0.55078-0.24609 0.39453-0.23828 1.0156-0.23438 1.4219 0.015625 0.36328 0.22266 0.43359 0.5 0.125 0.5-0.10938 0-0.19922-0.042969-0.19922-0.097656 0-0.11719-0.52734-0.40234-0.73828-0.40234-0.082032 0-0.23828 0.09375-0.34375 0.20703-0.16406 0.17578-0.17578 0.26562-0.09375 0.625 0.16016 0.70312 0.11328 0.96875-0.41797 2.3047-0.45312 1.1367-0.79688 2.3945-0.68359 2.5078 0.023438 0.023437 0.27344-0.074219 0.55859-0.21484 0.39844-0.19531 0.60156-0.24219 0.87109-0.19141 0.44531 0.082031 0.44922 0.21094 0.003906 0.35547-0.33594 0.10938-0.97656 0.76172-1.3828 1.4023l-0.1875 0.29297h0.60938c0.48047 0 0.60937-0.03125 0.60937-0.15234 0-0.21484 0.44141-0.36328 0.74219-0.25 0.13281 0.050782 0.29297 0.18359 0.35156 0.29688 0.16797 0.3125 0.58203 0.26953 0.71094-0.070313 0.054688-0.15234 0.19141-0.34375 0.30078-0.42969 0.16797-0.12891 0.18359-0.19922 0.09375-0.42969-0.058593-0.15234-0.19531-0.80078-0.30469-1.4414-0.22656-1.3047-0.49609-2.3164-0.61719-2.3164-0.09375 0-0.10938-1.3398-0.015625-1.6758 0.042969-0.16406 0.12109-0.22266 0.27344-0.19922 0.1875 0.027343 0.20703 0.085937 0.17578 0.50391-0.019531 0.29688 0.007812 0.47266 0.074219 0.47266 0.058593 0 0.10938 0.125 0.10938 0.27734s0.09375 0.58984 0.20703 0.97266c0.21484 0.72656 0.34766 1.2422 0.75 2.8672 0.17578 0.71875 0.21484 1.0352 0.14453 1.2227-0.050781 0.13672-0.14062 0.25-0.19922 0.25-0.054688 0-0.10156 0.082031-0.10156 0.17969 0 0.15234 0.19922 0.21094 1.3203 0.39453 0.72656 0.11719 1.3359 0.19922 1.3555 0.17969 0.019532-0.019531 0.039063-0.38672 0.042969-0.81641 0.007813-0.91797-0.23438-1.875-0.52344-2.0547-0.27734-0.17188-0.24219-0.27344 0.09375-0.27344 0.72656 0 1.3516 1.2852 1.2891 2.6445l-0.03125 0.69922 0.69922 0.22656c1.543 0.5 2.0312 0.73047 2.3906 1.1289 0.38672 0.42969 0.46094 0.82031 0.17969 0.98437-0.16406 0.097657-0.16406 0.10156 0.003907 0.10547 0.40625 0.007813 0.47266 0.79688 0.47266 5.7227 0 3.125-0.027344 3.8945-0.16016 4.4922-0.089844 0.39844-0.20313 0.80078-0.25391 0.89844-0.050781 0.097657-0.11328 0.45703-0.14453 0.79688-0.027344 0.34375-0.09375 0.89453-0.14453 1.2227s-0.09375 0.73828-0.09375 0.91016v0.30859l0.97266 0.054687c1.418 0.078125 2.5977 0.60156 3.5039 1.5547 0.28125 0.29688 0.37891 0.53516 0.62891 1.5586 0.20312 0.82422 0.30469 1.5195 0.32422 2.1953 0.023438 0.83203 0.058594 1.0117 0.21875 1.1289 0.16406 0.11719 0.16797 0.15234 0.039063 0.23047-0.082031 0.050781-0.18359 0.09375-0.22266 0.097656-0.042968 0-0.074218 0.28125-0.078124 0.625 0 0.34375-0.042969 0.80469-0.089844 1.0234-0.050782 0.21875-0.11328 0.92188-0.14453 1.5625s-0.097656 1.2773-0.15234 1.4141c-0.050781 0.13672-0.19141 0.91797-0.3125 1.7344-0.17188 1.1562-0.20312 1.707-0.15234 2.5039 0.0625 0.96875 0.054687 1.0234-0.12891 1.0234-0.125 0-0.23047-0.10547-0.29297-0.29297zm-25.98-9.8672c0-0.042968-0.085937-0.1875-0.19141-0.32031l-0.1875-0.24609-0.20312 0.24609c-0.28906 0.34766-0.26562 0.39453 0.1875 0.39453 0.21875 0 0.39844-0.035156 0.39844-0.074219zm23.262-3.5859c0.25391-0.22266-0.33984-1.0977-1.043-1.5312-0.37891-0.23438-0.55078-0.19141-0.89844 0.21484-0.37891 0.44141-0.46484 0.6875-0.39844 1.0938l0.066406 0.39063 1.1133-0.066407c0.61328-0.035156 1.1328-0.082031 1.1602-0.10547zm1.4883-0.40625c0.45703-0.29688 0.61719-0.64062 0.39844-0.84766-0.31641-0.29687-0.96094-0.73828-1.3164-0.90234-0.46875-0.21094-0.5-0.21484-0.42969-0.027344 0.03125 0.082031-0.019531 0.19141-0.11328 0.24219-0.15234 0.085938-0.14062 0.12891 0.12891 0.42578 0.16406 0.17969 0.32812 0.35156 0.35938 0.38281 0.15234 0.12891 0.39844 0.73438 0.34766 0.85938-0.085937 0.21875 0.16016 0.16797 0.62109-0.13281zm-2.082-1.9727c0.10938-0.12891 0.0625-0.14844-0.33594-0.14844-0.45312 0-0.62891 0.14062-0.28516 0.23047 0.33984 0.089844 0.5 0.066406 0.625-0.082032zm-14.285-8.543c0.35547-0.15234 0.5625-0.33203 0.79297-0.6875 0.17188-0.26562 0.42578-0.55469 0.56641-0.64844 0.22656-0.14844 0.50391-0.62891 0.41797-0.71875-0.019532-0.019531-0.1875 0.078125-0.37109 0.21484-0.90234 0.66406-2.4727 0.92578-4.2109 0.69531-1.1602-0.15234-1.5938-0.33203-1.9766-0.81641-0.27344-0.34375-0.27344-0.82812 0-0.82812 0.11719 0 0.19922 0.066407 0.19922 0.16016 0 0.29687 0.42969 0.76172 0.88672 0.96484 0.37109 0.16406 0.68359 0.20312 1.6562 0.21094 1.1484 0.007812 1.2266-0.003907 1.8477-0.30078 0.47266-0.22656 0.89453-0.55469 1.5625-1.2227 0.50391-0.5 0.9375-0.91016 0.96484-0.91016 0.18359 0 0.34766 0.13672 0.30078 0.25781-0.03125 0.078124 0.003907 0.14062 0.074219 0.14062 0.070313 0 0.23047 0.097657 0.35547 0.21484 0.17578 0.16797 0.42578 0.23438 1.1562 0.30469 1.9297 0.19141 2.5273 0.12891 3.375-0.35547 0.77734-0.44531 1.0742-0.5625 1.2461-0.49609 0.16016 0.0625 0.20703 0.23438 0.0625 0.23438-0.046875 0-0.3125 0.17969-0.58594 0.39453-0.27344 0.21875-0.61719 0.44141-0.76172 0.49609-0.51953 0.19922-1.9414 0.31641-2.5859 0.21484-1.0117-0.16016-1.5703-0.19141-1.5703-0.089844 0 0.050781 0.21484 0.31641 0.47266 0.58984 0.48438 0.50391 0.94531 0.73047 2.1289 1.0391 0.78516 0.20703 1.6914 0.25 1.9922 0.09375 0.46094-0.23828 1.668-1.4883 1.9922-2.0664 0.29297-0.52344 0.35156-0.57422 0.66406-0.57422 0.23047 0 0.37891 0.0625 0.46484 0.19922 0.070313 0.10938 0.17578 0.19922 0.24219 0.19922 0.0625 0 0.09375 0.082031 0.070312 0.17969-0.09375 0.35937 0.92969 1.168 1.3945 1.1016 0.21484-0.03125 0.21875-0.054688 0.22266-2.0273 0.003906-1.0977-0.011719-2.0664-0.03125-2.1523-0.035157-0.14062-0.097657-0.13672-0.59766 0.03125-1.0039 0.33984-2.6016 0.49219-4.418 0.41797-1.293-0.050781-1.832-0.03125-2.4961 0.09375-0.46484 0.085938-1.4102 0.20703-2.0977 0.26562s-1.5195 0.14453-1.8477 0.19141c-1.1367 0.15234-2.5117 0.17188-8.7383 0.12109-1.8867-0.015625-2.457-0.085937-2.2656-0.27734 0.097657-0.097656 3.5-0.11719 5.1133-0.027343 2.082 0.11719 6.5078-0.17188 9.5859-0.625 1.0781-0.16016 1.6133-0.1875 2.3477-0.13281 2.2188 0.16406 3.7734 0.023438 5.0664-0.46875 0.95313-0.36328 1.0117-0.48438 0.46484-1.0117-0.30469-0.29688-1.5234-0.90625-1.625-0.80859-0.019531 0.015625 0.015625 0.12109 0.074219 0.23438 0.19531 0.36719 0.13281 0.71094-0.14844 0.81641-0.3125 0.11719-0.46875 0.042969-0.39453-0.19531 0.03125-0.097656-0.046875-0.32422-0.17578-0.51562-0.20312-0.29688-0.27734-0.33594-0.59375-0.30859-0.28516 0.023437-0.38672-0.011719-0.47266-0.17578-0.125-0.23437-0.28516-0.25781-0.65234-0.089843-0.47656 0.21484-0.42188 0.89062 0.10938 1.3906 0.21875 0.20703 0.27734 0.21484 0.57422 0.10938 0.5-0.17969 0.65625-0.14453 0.37891 0.082031-0.36719 0.30469-1.1094 0.26953-1.5156-0.074219-0.34766-0.29297-0.59375-0.77734-0.59375-1.1719 0-0.17578 0.10938-0.32422 0.35547-0.49219 0.19531-0.13281 0.32031-0.26562 0.27344-0.29297s-0.47266-0.10156-0.95312-0.17188c-0.85156-0.12109-0.87891-0.11719-1.168 0.11328-0.26172 0.20703-0.29687 0.30078-0.30078 0.75781-0.003906 0.48828-0.023437 0.52344-0.25 0.52344-0.30078 0-0.45312-0.25781-0.45312-0.77344 0-0.3125-0.054687-0.42969-0.29688-0.60547-0.59375-0.4375-0.70703-0.28516-0.66016 0.90625 0.023437 0.67969 0.007813 0.77344-0.14453 0.77344-0.28516 0-0.40234-0.24609-0.41016-0.875-0.007813-0.55078-0.027344-0.60547-0.24609-0.64844-0.27344-0.050781-0.28125-0.035156-0.12891 0.24219 0.12109 0.22266 0.14453 0.95703 0.042968 1.2773-0.046875 0.14453-0.14844 0.20312-0.34766 0.20312-0.25391 0-0.28125-0.035156-0.28125-0.32812 0-0.33594-0.23047-0.99219-0.4375-1.2383-0.089844-0.10938-0.17188-0.03125-0.40234 0.37109-0.26172 0.45703-0.32031 0.50391-0.59766 0.47656-0.17188-0.015625-0.35938-0.10938-0.41797-0.20312-0.10547-0.16797-0.089843-0.23828 0.1875-0.90234 0.10156-0.24219-0.17188-0.23047-0.63672 0.03125-0.76562 0.42969-1.1523 1.5078-0.74609 2.0703 0.48438 0.66406 1.8945 0.96094 2.457 0.51953 0.25781-0.20312 0.57031-0.26562 0.57031-0.11719 0 0.19141-0.42969 0.51562-0.77344 0.58203-1.2891 0.25391-2.7422-0.23438-3.168-1.0625-0.070312-0.13672-0.14844-0.64062-0.17188-1.1211-0.023437-0.48047-0.066406-0.89453-0.089843-0.91797-0.027344-0.027343-0.34766 0.003907-0.71484 0.0625-0.66406 0.10938-0.66797 0.11328-0.72656 0.46875-0.11719 0.73438-0.14844 0.80859-0.33594 0.80859-0.22656 0-0.30859-0.1875-0.30859-0.70703 0-0.32031-0.035156-0.39062-0.19531-0.39062-0.15234 0-0.21094 0.097656-0.26953 0.47266-0.042968 0.26172-0.082031 0.50781-0.09375 0.55078-0.007812 0.042968-0.023437 0.16406-0.03125 0.27344-0.011718 0.16016-0.082031 0.19922-0.375 0.19922h-0.36328l0.10938-1.4609-0.56641 0.039063c-0.77734 0.054687-0.81641 0.074219-0.81641 0.44922 0 0.18359-0.078126 0.44141-0.17188 0.57812-0.57031 0.81641-1.1758 1.1719-2.1562 1.2617-1 0.089844-2.1406-0.44141-2.5195-1.1758-0.1875-0.35938-0.51172-0.37109-1.1406-0.039062-0.24609 0.12891-0.62891 0.32422-0.85156 0.4375-0.36719 0.18359-0.42578 0.26562-0.6875 1.0234-0.26562 0.76953-0.28125 0.88672-0.21875 1.8281 0.14062 2.1445 0.39062 2.7578 1.2969 3.1836 0.78125 0.37109 1.3594 0.54688 2.0352 0.62109 1.0273 0.11719 1.4336-0.25391 2.4844-2.2656 0.40234-0.76562 1.0508-0.77734 1.3203-0.019531 0.46875 1.3242 1.1758 1.9062 3.1797 2.6367 1.2188 0.44141 2.4492 0.51562 3.2148 0.1875zm-11.691-1.9883c-0.71094-0.21484-1.1328-0.65234-1.0664-1.1094 0.046875-0.32422 0.42188-0.33203 0.46484-0.011719 0.050781 0.35547 0.76172 0.82031 1.2539 0.81641 0.62891 0 1.4258-0.25 2.0625-0.64453 0.54297-0.33594 0.95312-0.39062 0.86719-0.11719-0.070313 0.22656-1.1562 0.85938-1.7266 1.0078-0.625 0.16406-1.4219 0.1875-1.8555 0.054687zm4.0859-5.0117c0.17969-0.054688 0.32422-0.16016 0.32422-0.23828 0-0.078124 0.042968-0.14062 0.097656-0.14062 0.21484 0 0.41406-0.48047 0.34766-0.83984-0.0625-0.34375-0.085937-0.35938-0.48047-0.35547-0.25781 0-0.63672 0.11328-1.0117 0.30078-0.32812 0.16406-0.74609 0.32812-0.92188 0.35938-0.17969 0.035157-0.32422 0.097657-0.32422 0.14453 0 0.17188 0.46094 0.59766 0.83984 0.78125 0.38672 0.18359 0.50781 0.18359 1.1328-0.003906zm-1.4883-1.3945c0.38281-0.28125 0.41797-0.33984 0.35938-0.625-0.035157-0.17187-0.082031-0.32812-0.10156-0.35156-0.070312-0.078125-0.62891 0.54688-0.73438 0.82031-0.21484 0.56641-0.12109 0.59766 0.47656 0.15625zm8.9023-0.63672c0.10547-0.125 0.089843-0.14844-0.085938-0.14844-0.12109 0-0.21094 0.0625-0.21094 0.14844 0 0.082031 0.039063 0.14844 0.085938 0.14844s0.14453-0.066406 0.21094-0.14844zm-6.9883-0.0625c0-0.13281-0.29688-0.37891-0.46094-0.38281-0.12109-0.003906-0.25 0.34766-0.16016 0.44141 0.10547 0.10547 0.62109 0.054687 0.62109-0.058594zm11.281-0.24609c0-0.023438-0.125-0.039062-0.27344-0.039062-0.19922 0-0.23438 0.027343-0.13281 0.089843 0.12891 0.082031 0.41016 0.042969 0.41016-0.054687zm-7.1484-0.36328c0.035156-0.23438 0.089843-0.57031 0.125-0.75 0.046875-0.25391 0.023437-0.32422-0.10156-0.32422-0.085937 0-0.18359 0.10156-0.21094 0.22656-0.30078 1.3164-0.29688 1.2734-0.066407 1.2734 0.14453 0 0.20313-0.097656 0.25391-0.42578zm1.4258 0.22656c0.40234 0 0.39453 0.12109 0.074219-1.3828-0.10156-0.48438-0.20703-0.77734-0.25-0.69922-0.09375 0.17578-0.49609 1.8203-0.49609 2.0352 0 0.11328 0.050781 0.14844 0.15625 0.10547 0.085937-0.035156 0.31641-0.0625 0.51172-0.0625zm1.1914-0.375c-0.027344-0.15234-0.078125-0.48828-0.11328-0.75-0.042969-0.31641-0.10938-0.47266-0.20703-0.47266-0.20703 0-0.16406 0.55078 0.10938 1.3711 0.082031 0.25 0.26172 0.125 0.21094-0.14844zm-4.0391-4.4258c0.039062-0.1875 0.10156-0.46484 0.13672-0.61719 0.050782-0.21484 0.03125-0.27344-0.09375-0.27344-0.10547 0-0.16016 0.085937-0.16016 0.25 0 0.15625-0.054687 0.25-0.14844 0.25-0.10156 0-0.14844 0.10156-0.14844 0.33203 0 0.58594 0.30078 0.625 0.41797 0.058594zm3.1641-3.6797c0.054688-0.24609 0.074219-0.48047 0.046875-0.52734-0.027343-0.046875 0.007813-0.16016 0.082031-0.25 0.11719-0.14453 0.10938-0.15625-0.066406-0.082031-0.32422 0.13281-0.5625 0.082031-0.84375-0.1875-0.14453-0.14063-0.30469-0.25391-0.35547-0.25391-0.046876 0-0.011719 0.054688 0.082031 0.125 0.09375 0.070313 0.25391 0.35938 0.35938 0.64453 0.45312 1.2461 0.52344 1.3008 0.69531 0.53125zm0.13672-1.3086c0.20703-0.09375 0.23438-0.17969 0.25-0.77344 0.023437-0.77344-0.019531-0.87109-0.42578-0.95312-0.21484-0.042968-0.36328-0.007812-0.53125 0.13281-0.19531 0.16406-0.21875 0.25-0.16016 0.57031 0.082031 0.44922 0.40625 1.1289 0.53906 1.1289 0.050781 0 0.19922-0.046876 0.32422-0.10547zm-5.9375 40.785c-0.03125-0.03125 0.050781-0.21875 0.18359-0.41406 0.42578-0.62891 0.26562-1.4922-0.40234-2.1641-0.72266-0.72656-1.1367-1.5312-1.0039-1.9531 0.097656-0.30469 0.32422-0.24219 0.40234 0.11719 0.09375 0.42188 0.38281 0.92969 0.84375 1.4844 0.62891 0.75391 0.79688 1.0977 0.80078 1.625 0 0.51172-0.10156 0.78125-0.42969 1.1406-0.21094 0.23047-0.29297 0.26563-0.39453 0.16797zm14.047-1.1484c-0.085938-0.16797-0.39844-0.57031-0.69531-0.89063-0.59375-0.64453-0.74609-1.043-0.75-1.9219 0-0.49219 0.027343-0.57422 0.18359-0.57422 0.14844 0 0.19922 0.10156 0.24609 0.47266 0.10156 0.80469 0.26172 1.2031 0.65625 1.6602 0.42969 0.49609 0.75391 1.0039 0.85547 1.3359 0.10938 0.36328-0.30469 0.29688-0.5-0.082031zm9.1523-3.1797c-0.19531-0.12109 0.17969-0.80078 0.44531-0.80469 0.30859-0.003906 0.35156 0.089844 0.1875 0.40625-0.17188 0.33203-0.45312 0.50781-0.62891 0.39844zm-19.957-5.25c-0.37891-0.16406-0.55859-0.55078-0.46484-0.99219 0.12891-0.60937 0.94922-1.4883 1.7422-1.8711 0.24609-0.11719 0.46094-0.22656 0.48047-0.23828 0.015625-0.011719-0.054687-0.24219-0.16016-0.51563-0.24219-0.63281-0.80469-1.3945-1.0898-1.4727-0.32031-0.085937-0.17578-0.35547 0.1875-0.35547 0.16406 0 0.37891 0.046874 0.48438 0.10156 0.34766 0.1875 1.0859 1.043 1.3984 1.6211 0.16797 0.31641 0.375 0.57422 0.45312 0.57422 0.25781 0 0.92578 0.76953 1.043 1.2031 0.12891 0.47266 0.15234 1.0703 0.058594 1.3672-0.12109 0.37891-1.1562 0.71094-1.1562 0.375 0-0.082031 0.042969-0.14844 0.09375-0.14844 0.20703 0 0.21094-0.4375 0.007813-1.0508-0.11719-0.35547-0.25-0.66797-0.29297-0.69531s-0.12891 0.0625-0.19141 0.19922c-0.16797 0.37109-0.47656 0.32031-0.61719-0.10547l-0.11719-0.35156-0.30078 0.17578c-0.42188 0.24609-1.0469 0.97656-1.1797 1.3789-0.12891 0.39062 0 0.74219 0.27734 0.75391 0.14063 0.007813 0.13672 0.019531-0.027343 0.09375-0.26172 0.11328-0.25 0.11328-0.625-0.050781zm11.727-0.21875c-0.10938-0.027344-0.16016-0.10547-0.125-0.19141 0.070313-0.18359-0.44531-1.332-0.68359-1.5312-0.15625-0.12891-0.19141-0.125-0.30078 0.023437-0.13672 0.1875-0.51562 0.22266-0.75 0.074219-0.125-0.078125-0.10938-0.13281 0.09375-0.34766 0.30859-0.32812 0.16797-0.32812-0.26172 0-0.55859 0.42578-0.78125 1.0781-0.53125 1.5508 0.085938 0.16406 0.070313 0.19141-0.10547 0.19141-0.44141 0-0.78516-0.34766-0.83984-0.85156-0.039063-0.36719 0.36328-1.0391 0.81641-1.3711 0.37109-0.26953 0.52344-0.3125 1.2461-0.35156 0.57422-0.03125 0.90234-0.10156 1.082-0.22656 0.34375-0.24219 0.75391-0.33594 0.83984-0.19531 0.039062 0.066406-0.085938 0.25-0.29688 0.43359l-0.36719 0.32031 0.22266 0.25c0.32031 0.35938 0.59375 1.0234 0.66406 1.5938 0.054688 0.46875 0.042969 0.5-0.21094 0.59766-0.14844 0.054688-0.27734 0.097656-0.28906 0.089844-0.011719-0.007813-0.10156-0.03125-0.19922-0.058594zm-4.6875-7.1797c-0.03125-0.03125 0.039063-0.24609 0.15625-0.47266 0.30859-0.58594 0.28125-1.5625-0.074219-2.5625-0.61719-1.7422-0.59766-1.6562-0.46484-1.9727 0.125-0.29688 0.54297-0.57422 0.71484-0.46875 0.050782 0.03125-0.003906 0.18359-0.11719 0.33984l-0.21094 0.28516 0.40625 1.0391c0.66406 1.6953 0.70703 2.6133 0.16797 3.4688-0.23438 0.375-0.43359 0.48828-0.57812 0.34375zm-1.332-19.27c0.035156-0.085937 0.089844-0.27734 0.125-0.42578 0.035156-0.14453 0.20703-0.46875 0.38672-0.71484 0.17578-0.24609 0.35547-0.625 0.39453-0.83984 0.14453-0.79297 0.34766-1.1367 0.73828-1.2617 0.19922-0.066406 0.44531-0.1875 0.54297-0.26953 0.15625-0.13672 0.16016-0.17187 0.027344-0.31641-0.082032-0.089844-0.24219-0.37891-0.35938-0.64062l-0.21094-0.48047-0.16406 0.23438c-0.10937 0.15625-0.16406 0.43359-0.16406 0.83203 0 0.59375-0.003906 0.60156-0.375 0.78125-0.28516 0.14062-0.375 0.24219-0.375 0.43359 0 0.35156-0.30469 0.83203-0.53125 0.83203-0.14453 0-0.17188-0.042969-0.10938-0.17578 0.042969-0.097656 0.097656-0.36719 0.12109-0.60156 0.039062-0.37891 0.085937-0.44922 0.42578-0.625 0.38281-0.19531 0.38281-0.19922 0.32812-0.6875-0.046875-0.40625-0.019531-0.54688 0.16016-0.80078 0.12109-0.16797 0.32812-0.33594 0.46094-0.36719 0.18359-0.046875 0.24219-0.12891 0.24219-0.33203 0-0.27734 0.34375-0.67578 0.76953-0.89453 0.24219-0.125 1.4883 0.007812 1.8359 0.19141 0.28125 0.14844 0.23047 0.79297-0.058594 0.79297-0.10156 0-0.10547 0.0625-0.023437 0.28125 0.22656 0.59375-0.30859 1.4141-0.92188 1.4141h-0.3125l0.35547-0.33594c0.31641-0.30078 0.35547-0.39062 0.35547-0.83984 0-0.3125 0.046875-0.51953 0.12891-0.55078 0.070313-0.027344 0.13672-0.16016 0.14844-0.30078 0.015625-0.19531-0.039062-0.26953-0.25-0.32812-0.72266-0.20313-1.3203 0.039062-1.457 0.58984-0.089844 0.35938 0.16016 1.2422 0.4375 1.5391 0.16016 0.17188 0.18359 0.26562 0.10547 0.41016-0.10156 0.19141-0.58594 0.41016-0.90625 0.41016-0.125 0-0.25 0.21875-0.45313 0.77344-0.15234 0.42578-0.42969 0.97266-0.61328 1.2109-0.18359 0.24219-0.33203 0.52344-0.33203 0.62891 0 0.10547-0.046875 0.27734-0.10156 0.38672-0.125 0.23828-0.44531 0.26562-0.35547 0.035156zm4.4531-1.2891c-0.054688-0.14453-0.10156-0.31641-0.10547-0.37891-0.003906-0.066406-0.085938-0.35547-0.17969-0.64453-0.125-0.38672-0.25781-0.57812-0.49219-0.72266-0.34375-0.21094-0.41406-0.4375-0.16406-0.53516 0.26953-0.10547 0.44141-0.066407 0.44141 0.09375 0 0.085937 0.10547 0.25391 0.23828 0.375 0.23828 0.22266 0.5625 1.1914 0.5625 1.6914 0 0.36328-0.17969 0.4375-0.30078 0.125zm0.80078-0.19141c0-0.085937 0.035156-0.15625 0.078125-0.15625 0.10156 0 0.14453-0.56641 0.066406-0.91406-0.042969-0.20312-0.13672-0.28906-0.37891-0.33984-0.44141-0.097656-0.48047-0.20703-0.25781-0.76953l0.19531-0.49219-0.30078-0.34375c-0.30859-0.35156-0.40234-0.73828-0.17578-0.73047 0.070313 0.003906 0.32422 0.23438 0.56641 0.51172l0.44531 0.50781-0.17969 0.50781c-0.097656 0.28125-0.14062 0.52344-0.09375 0.53906 0.55078 0.19141 0.58594 0.25391 0.58594 1.0273 0 0.73828-0.003906 0.74609-0.27344 0.77734-0.19531 0.023438-0.27344-0.011718-0.27344-0.125zm-2.5273-3.9219c-0.39844-0.0625-0.27344-0.27734 0.16406-0.28516 0.19922-0.003906 0.39453-0.039062 0.43359-0.074219 0.039063-0.039062 0.15234-0.066406 0.25781-0.066406 0.14062 0 0.17969 0.058594 0.15625 0.22656-0.027344 0.17969-0.097656 0.22656-0.38281 0.23828-0.19141 0.007812-0.47656-0.007812-0.62891-0.03125z"/>
</svg>