<svg xmlns="http://www.w3.org/2000/svg" version="1.1" viewBox="-5.0 -10.0 110.0 135.0" fill="#6a3137">
 <path d="m58.707 28.207c-3.6641-0.41406-8.5195-0.64062-13.668-0.64062-5.1484 0-10.004 0.22656-13.668 0.64062-5.6875 0.64062-6.207 1.4492-6.2148 2.1562v0.007813 0.011718c0 0.3125 0.09375 0.64844 0.69531 0.98047 7.4258 7.7227 13.918 13.496 18.801 16.703 0.10547 0.070313 0.23047 0.10547 0.35156 0.10547s0.24219-0.035156 0.35156-0.10547c5.7266-3.7266 11.832-9.1055 19.211-16.926 0.30469-0.25781 0.36719-0.51172 0.36719-0.75781 0-0.71094-0.48047-1.5273-6.2188-2.1719zm-26.488 1.1992c3.5273-0.35938 8.0781-0.55859 12.82-0.55859 4.7422 0 9.293 0.19922 12.82 0.55859 3.4023 0.34766 4.8516 0.73828 5.4492 0.97266-0.59766 0.23438-2.0469 0.625-5.4492 0.97266-3.5273 0.35938-8.0781 0.55859-12.82 0.55859-4.7422 0-9.293-0.19922-12.82-0.55859-3.4023-0.34766-4.8516-0.73828-5.4492-0.97266 0.59766-0.23438 2.0469-0.625 5.4492-0.97266zm12.781 17.348c-4.4062-2.957-10.113-7.9883-16.629-14.641 0.79297 0.15234 1.7695 0.29688 3 0.4375 3.6641 0.41406 8.5195 0.64062 13.668 0.64062 5.1484 0 10.004-0.22656 13.668-0.64062 1.3125-0.14844 2.3398-0.30469 3.1602-0.46875-6.375 6.5977-11.793 11.316-16.867 14.668zm-0.94141-10.031c-0.875 0-1.5859 0.71094-1.5859 1.5859s0.71094 1.5859 1.5859 1.5859 1.5859-0.71094 1.5859-1.5859-0.71094-1.5859-1.5859-1.5859zm0 2.2109c-0.34375 0-0.625-0.28125-0.625-0.625s0.28125-0.625 0.625-0.625 0.625 0.28125 0.625 0.625-0.28125 0.625-0.625 0.625zm-1.1211-3.4531c0-0.875-0.71094-1.5859-1.5859-1.5859s-1.5859 0.71094-1.5859 1.5859 0.71094 1.5859 1.5859 1.5859 1.5859-0.71094 1.5859-1.5859zm-1.5859 0.62109c-0.34375 0-0.625-0.28125-0.625-0.625s0.28125-0.625 0.625-0.625 0.625 0.28125 0.625 0.625-0.28125 0.625-0.625 0.625zm36.352-25.535c-5.4922-1.8281-11.449 1.1484-13.277 6.6406-0.14844 0.44531-0.25781 0.90234-0.34375 1.3594-5.3164-0.57812-12.039-0.89453-19.043-0.89453-7.8438 0-15.227 0.39062-20.781 1.0977-2.7227 0.34766-4.8711 0.75391-6.3789 1.207-1.2227 0.36719-2.6016 0.91797-2.7305 1.9141-0.007813 0.03125-0.011719 0.058594-0.015626 0.09375 0 0.019531-0.011718 0.039063-0.011718 0.058594 0 0.027343 0.011718 0.054687 0.015625 0.082031 0.003906 0.03125 0.007812 0.058594 0.015625 0.089844 0.058594 0.39453 0.3125 0.71875 0.67578 0.98438 7.0625 9.6641 15.656 18.516 25.578 26.305 1.2734 2.6211 1.3242 11.91 1.3477 16.406 0.023438 4.5742-0.074218 8-0.29297 10.469-0.34375 3.8281-0.92188 4.4961-1.0625 4.6055-7.4375 0.24609-15.328 1.5469-15.328 4.4766 0 1.4297 1.918 2.5352 5.8594 3.3711 3.4922 0.74219 8.1289 1.1523 13.051 1.1523s9.5586-0.41016 13.051-1.1523c3.9414-0.83594 5.8594-1.9414 5.8594-3.3711 0-2.9258-7.707-4.2227-15.012-4.4727-0.27734-0.36328-0.75391-1.4961-1.0195-5.0273-0.21484-2.8555-0.25-6.5-0.26953-10.293l-0.003906-0.67188c-0.035157-6.4414-0.066407-13.086 1.1016-15.43 7.6289-5.6602 14.586-12.324 20.699-19.82 0.53906 0.28906 1.0938 0.55078 1.6797 0.74609 1.0898 0.36328 2.2109 0.54297 3.3281 0.54297 1.6055 0 3.2031-0.375 4.6836-1.1133 2.5078-1.2539 4.3789-3.4102 5.2656-6.0703 1.832-5.4922-1.1484-11.449-6.6406-13.277zm-52.695 9.3945c5.4297-0.65234 12.543-1.0117 20.031-1.0117 6.9492 0 13.609 0.31641 18.879 0.88672-0.097657 1.4688 0.10938 2.9414 0.62891 4.3359-4.9414 0.56641-11.629 0.94531-19.508 0.94531-7.4844 0-14.598-0.35938-20.031-1.0117-5.6602-0.67969-7.6172-1.4531-8.2812-1.8516-0.070312-0.097656-0.14453-0.19141-0.21484-0.28906 0.38281-0.31641 2.0039-1.2188 8.4961-2zm22.777 28.664c-0.003906 0.003906-0.003906 0.007812-0.007812 0.007812-0.035156 0.027344-0.058594 0.0625-0.085938 0.097657-0.027344 0.03125-0.0625 0.0625-0.082031 0.097656l-0.007813 0.007813c-1.375 2.5391-1.3398 9.1523-1.3047 16.156l0.003906 0.67187c0.046875 8.9219 0.20312 14.91 1.8164 16.367 0.011718 0.011719 0.023437 0.023438 0.039062 0.039062 0.015625 0.015626 0.03125 0.035157 0.050781 0.050782 0.023438 0.019531 0.050781 0.027344 0.078125 0.039062 0.027344 0.015625 0.050782 0.03125 0.078125 0.042969 0.058594 0.023437 0.11719 0.035156 0.17969 0.042969 0.015625 0 0.023437 0.007812 0.039062 0.007812 4.2422 0.12891 7.8711 0.57031 10.492 1.2695 2.7891 0.74219 3.5312 1.5625 3.5312 1.9297 0 0.30078-0.87109 1.2734-4.8438 2.1172-3.4062 0.72266-7.9492 1.1211-12.785 1.1211-4.8359 0-9.375-0.39844-12.785-1.1211-3.9727-0.84375-4.8438-1.8125-4.8438-2.1172 0-0.95703 4.168-2.8828 14.215-3.1953 0.007812 0 0.015625-0.003906 0.027344-0.007812 0.042968-0.003906 0.089844-0.007812 0.13281-0.019531 1.4766-0.42969 2.3789-3.3125 2.3125-16.336-0.046875-8.6016-0.32422-14.801-1.5391-17.102 0 0-0.003906-0.003907-0.003906-0.003907-0.019532-0.039062-0.054688-0.066406-0.082032-0.10156-0.027344-0.03125-0.050781-0.070312-0.082031-0.09375l-0.003906-0.003906c-9.2812-7.2695-17.383-15.477-24.156-24.41 1.4883 0.42187 3.5312 0.79687 6.0859 1.125 5.5547 0.70703 12.938 1.0977 20.781 1.0977 10.254 0 21.867-0.71875 27.059-2.2734-1.1641 1.5586-2.4883 3.2773-3.3281 4.3438-6.1719 7.6406-13.23 14.422-20.984 20.156zm21.387-33.539 3.7852 4.6914-6.0078-0.42578c0.0625-0.41016 0.15234-0.81641 0.28516-1.2148 0.40234-1.2031 1.0781-2.2344 1.9375-3.0547zm7.5938-1.7109c0.97656 0.32422 1.8359 0.83203 2.5664 1.4688l-4.2148 4.0781 0.33203-5.8516c0.44141 0.0625 0.87891 0.16016 1.3164 0.30469zm5.0312 5.8086-5.6523 0.52734 4.0781-3.9414c0.80078 0.98438 1.3477 2.1602 1.5781 3.4141zm-0.26562 3.7227c-0.25781 0.76953-0.62891 1.4648-1.0859 2.0859l-4.5195-3.9688 5.9844-0.55859c0.007813 0.80859-0.10938 1.6328-0.37891 2.4414zm-9.5312 4.7656c-0.25781-0.085937-0.50781-0.1875-0.75391-0.30078 0.82422-1.0703 1.7266-2.2617 2.4961-3.3086v3.9609c-0.58203-0.050782-1.1641-0.16016-1.7422-0.35156zm3.0234-5.7305 4.5742 4.0156c-1.2383 1.1875-2.8555 1.9258-4.5742 2.0742zm-1.1875-3.1172-3.6641-4.5391c1.1719-0.78906 2.5547-1.2422 3.9922-1.2852l-0.33203 5.8242zm-0.097657 2.2969v0.83984c-0.023437 0.011718-0.039062 0.035156-0.058593 0.050781-0.019532 0.015625-0.042969 0.023437-0.0625 0.039062-0.59766 0.59375-2.7188 1.1953-6.0312 1.707-0.46875-0.98437-0.71484-2.0508-0.73438-3.1289l6.8828 0.48828zm9.3828 2.3164c-0.77734 2.3359-2.418 4.2266-4.6211 5.3281-2.1992 1.1016-4.6992 1.2773-7.0352 0.5-0.4375-0.14453-0.85938-0.33594-1.2656-0.54297 0.078125-0.10156 0.16016-0.20703 0.24609-0.3125 0.37109 0.18359 0.75 0.35156 1.1445 0.48438 0.92188 0.30859 1.8594 0.45312 2.7812 0.45312h0.007812c0.003906 0 0.011719-0.003906 0.015625-0.003906 2.4883-0.007812 4.8438-1.0898 6.5039-2.918 0.039062-0.027343 0.078124-0.046875 0.10937-0.082031 0.035157-0.039062 0.050782-0.082031 0.074219-0.125 0.71094-0.83594 1.2969-1.8008 1.6641-2.9023 0.39453-1.1875 0.51953-2.4023 0.41406-3.5781 0-0.011719 0.003906-0.023437 0.003906-0.035156 0-0.015625-0.011718-0.03125-0.015624-0.046875-0.19922-1.9648-1.0508-3.8125-2.4102-5.2344-0.007812-0.007813-0.011719-0.023437-0.019531-0.03125-0.011719-0.011719-0.027344-0.015625-0.042969-0.027344-0.94922-0.97266-2.1328-1.7461-3.5117-2.207-0.73828-0.24609-1.4883-0.37891-2.2305-0.42578-0.019532-0.003907-0.039063-0.015625-0.058594-0.015625s-0.035156 0.007812-0.054688 0.007812c-2.168-0.10938-4.2773 0.59375-5.9414 1.9141-0.015625 0.007812-0.03125 0.011719-0.042968 0.023437-0.015626 0.015625-0.023438 0.035156-0.039063 0.046875-1.25 1.0195-2.2422 2.3867-2.7891 4.0273-0.22656 0.68359-0.35937 1.3867-0.41406 2.0977-0.003906 0.023438-0.019531 0.046875-0.019531 0.070313 0 0.027344 0.007812 0.050781 0.011719 0.078125-0.082032 1.3555 0.13672 2.7188 0.66797 3.9766-0.125 0.015625-0.26562 0.03125-0.39453 0.050781-0.83594-2.0391-0.92578-4.293-0.22266-6.3984 1.6055-4.8203 6.8359-7.4336 11.652-5.8281 4.8203 1.6055 7.4336 6.8359 5.8281 11.652zm-40.531 7.4961c0.53906 0 0.98438-0.15234 1.2461-0.39844-0.070313 0.11328-0.10938 0.23828-0.10938 0.37109 0 0.55469 0.63281 0.95312 1.5078 0.95312s1.5078-0.40234 1.5078-0.95312c0-0.55469-0.63281-0.95312-1.5078-0.95312-0.53906 0-0.98438 0.15234-1.2461 0.39844 0.070313-0.11328 0.10938-0.23828 0.10938-0.37109 0-0.55469-0.63281-0.95312-1.5078-0.95312s-1.5078 0.40234-1.5078 0.95312c0 0.55469 0.63281 0.95312 1.5078 0.95312zm2.6445-0.17969c0.33984 0 0.55859 0.085938 0.66016 0.15234-0.10156 0.0625-0.32031 0.15234-0.66016 0.15234s-0.55859-0.085938-0.66016-0.15234c0.097656-0.0625 0.32031-0.15234 0.66016-0.15234zm-2.6445-0.92578c0.33984 0 0.55859 0.085937 0.66016 0.15234-0.10156 0.0625-0.32031 0.15234-0.66016 0.15234s-0.55859-0.085937-0.66016-0.15234c0.10156-0.0625 0.32031-0.15234 0.66016-0.15234z"/>
</svg>