<svg xmlns="http://www.w3.org/2000/svg" version="1.1" viewBox="-5.0 -10.0 110.0 135.0" fill="#6a3137">
 <path d="m85.539 49.984c-0.078124-0.097656-0.15625-0.19531-0.22266-0.28125 0.83984-0.78906 1.5547-1.9492 1.9531-3.8242 0.44531-2.1094-0.43359-3.8047-2.3789-4.6797 1.1836-1.3047 1.7773-2.832 1.7773-4.5938 0-4.4844-4.0312-9.1367-11.062-12.762-7.3359-3.7852-16.754-5.8672-26.527-5.8672-9.8008 0-19.23 2.0352-26.555 5.7266-7.0547 3.5586-11.102 8.1602-11.102 12.625 0 1.9062 0.79297 3.5781 2.3438 4.9844-0.17969 0.32422-0.64453 0.6875-1.1328 1.0664-1.3086 1.0195-3.0977 2.4141-2.1719 5.0898 0.035156 0.10547 0.10547 0.19141 0.19531 0.24609 0.019531 0.03125 0.046875 0.078125 0.070312 0.11719 0.28516 0.49219 0.89453 1.5273 2.8633 2.0859-1.5312 1.1328-2.6328 3.1523-2.8516 5.4336-0.17969 1.8984 0.28906 3.6172 1.2656 4.9062-0.21875 2.0117-0.23828 3.1758 0.019532 3.9102-0.011719 0.019531-0.027344 0.03125-0.039063 0.050781-0.72266 1.5586-1.043 2.9961-1.043 4.6602 0 2.6484 1.1094 4.9219 3.3008 6.75 1.9805 1.6562 4.7891 2.9492 8.582 3.9492 6.2461 1.6484 15.195 2.4492 27.367 2.4492 12.43 0 20.574-0.70312 26.414-2.2812 7.3516-1.9844 10.922-5.4336 10.922-10.531 0-0.69922-0.007813-1.1367-0.17578-1.918-0.003906-0.019531-0.015624-0.03125-0.019531-0.046875 0.39453-0.46875 0.73047-1.043 0.98828-1.7422 0.40625-1.1094 0.65234-2.7266 0.30469-3.5664 0.59375-0.68359 0.98438-1.4688 1.1172-2.3672 0.54297-3.625-2.9023-7.9531-4.1992-9.582zm0.20313 1.832c0.30078 0.40234 0.625 0.86719 0.94531 1.3555l-0.59375 9.4922c-0.48047 0.25781-1.0039 0.5-1.5742 0.72656l-4.7852-3.082c1.5078-0.51562 2.7305-1.1445 3.582-1.9102 2.043-1.8398 2.832-3.9258 2.4297-6.5781zm-60.273 12.535-2.3242-5.0078c0.34375 0.058594 0.69531 0.11328 1.0703 0.15625 1.3945 0.17188 3.2852 0.40234 5.5586 0.65625 0.52344 0.58203 1.4023 1.0586 2.9688 1.2695 0.28906 0.039063 0.56641 0.058594 0.83203 0.058594 0.16406 0 0.32031-0.023437 0.47656-0.039063l-5.4609 3.3906c-1.0664-0.14844-2.1055-0.3125-3.1172-0.48828zm-0.76953-0.14062c-3.6719-0.67578-6.8984-1.5352-9.2188-2.6055l6.9805-2.2148 2.2383 4.8242zm11.547-3.3711c1.332 0.12891 2.6875 0.25781 4.0586 0.375l5.3555 4.9648c-5.0547-0.12891-10.77-0.51172-16.07-1.207zm10.387 5.3672-5.2852-4.8984c4.6836 0.39844 9.5273 0.71484 14.207 0.875l-6.1797 4.082c-0.5-0.011719-0.98828-0.019531-1.4453-0.027344l-1.293-0.027343zm10.035-3.9922c1.543 0.042968 3.0625 0.070312 4.5508 0.074218l5.6211 3.8594c-5.8359 0.27344-11.762 0.21875-16.34 0.13281l6.1641-4.0664zm11.23 3.8789-5.5469-3.8086c4.5508-0.023437 8.7578-0.25781 12.266-0.79297l-4.168 4.4375c-0.84375 0.0625-1.6953 0.11719-2.5508 0.16016zm7.7617-4.7734c1.1914-0.21094 2.2852-0.46484 3.2773-0.75781l4.8281 3.1094c-3.2422 1.1289-7.6406 1.8008-12.367 2.1875zm7.0117-3.6367c-2.5547 2.2969-9.0469 3.5234-19.293 3.6406-7.0586 0.082031-15.781-0.37109-25.918-1.3398 0.63281-0.5 1.2031-1.0703 1.75-1.6172 1.7773-1.7773 3.1836-3.1797 5.707-1.7109 1.2031 0.70312 2.7109-0.32812 4.1719-1.3281 1.8008-1.2305 3.043-1.9766 3.875-1.1875 1.7891 1.7031 3.0703 2.4375 4.1445 2.3828 0.99219-0.050782 1.5859-0.74219 2.1641-1.4102 0.89453-1.0391 1.7422-2.0195 4.2344-0.92188 1.2266 0.53906 1.8086 1.1172 2.375 1.6797 0.73438 0.73047 1.4297 1.418 3.2461 1.6172 0.6875 0.70703 1.2773 1.3047 1.7305 1.7344 0.097656 0.09375 0.23438 0.14062 0.36719 0.12891 0.13672-0.011718 0.26172-0.078124 0.34375-0.1875 0.5-0.64844 1.0195-1.3008 1.5547-1.9609 1.6172-0.46875 2.7227-1.3789 3.9961-2.4258 1.0078-0.82812 2.1484-1.7695 3.8047-2.7383 0.47656-0.27734 0.99609-0.48828 1.5469-0.71484 0.63672-0.25781 1.3047-0.53125 1.9375-0.92969 0.95312 3.1211 0.43359 5.3359-1.7383 7.2891zm-14.457-2.5234c-2.5469-2.6523-5.625-5.8438-8.0469-7.918 6.75-0.26172 11.785-0.82031 15.738-1.7305 2.6211-0.60156 4.7461-1.3711 6.4023-2.3086-2.332 4.0977-5.332 7.7695-8.2539 11.336-1.0234 1.25-1.9961 2.4375-2.918 3.6172-0.40625-0.39844-0.89453-0.89453-1.4375-1.4531-0.003907-0.003906-0.007813-0.007813-0.011719-0.011719-0.45312-0.46875-0.94922-0.98438-1.4688-1.5273zm18.109-9.4844c-0.70703 3.3281-2.4102 4.0234-4.2148 4.7539-0.55859 0.22656-1.1367 0.46094-1.6719 0.77344-1.7227 1.0078-2.8984 1.9766-3.9297 2.8281-0.72656 0.59766-1.3633 1.125-2.0547 1.5391 0.11719-0.14062 0.23438-0.28516 0.35156-0.42578 3.3359-4.0703 6.7773-8.2773 9.2461-13.129 0.03125-0.027344 0.0625-0.058594 0.09375-0.085937 1.1836 0.43359 2.6758 1.4414 2.1875 3.7461zm-73.621-9.3516c0-3.9062 3.8867-8.1953 10.395-11.48 7.1484-3.6055 16.375-5.5898 25.977-5.5898 20.445 0 36.305 9.3242 36.305 17.348 0 3.6406-3.1953 6.1484-9.7656 7.6562-5.6289 1.293-13.539 1.8711-25.637 1.8711-16.004 0-37.277-1.0156-37.277-9.8086zm37.098 11.09c-5.4688 4.7188-10.242 7.6289-14.188 8.6094-1.9648-1.5664-3.6836-3.207-5.3438-4.793-2.0117-1.9219-4.0781-3.8945-6.5977-5.7461 6.0664 1.2891 14.625 1.9219 26.129 1.9258zm-38.246-0.066406c-0.070313-0.12109-0.14063-0.24219-0.23438-0.33594-0.59375-1.9297 0.67188-2.918 1.8984-3.875 0.50781-0.39453 0.98828-0.77734 1.2891-1.2109 0.066407 0.050781 0.125 0.10547 0.19531 0.15234 1.5508 1.1016 3.6211 2.0078 6.2812 2.7539 3.4688 2.1914 5.9805 4.5781 8.6211 7.0977 1.7305 1.6523 3.5156 3.3594 5.5938 4.9961 0.085937 0.066407 0.19141 0.10156 0.29688 0.10156 0.035156 0 0.074218-0.003906 0.10938-0.011719 4.3438-1.0078 9.6172-4.25 15.668-9.6055 2.6797-0.007812 5.1523-0.046875 7.4336-0.12109 2.4648 1.9414 5.9648 5.5781 8.8125 8.5352 0.12109 0.125 0.24219 0.25 0.35938 0.375-0.55078-0.24609-0.90234-0.59375-1.3242-1.0117-0.57031-0.5625-1.2773-1.2656-2.668-1.875-3.1445-1.3828-4.418 0.097656-5.3516 1.1758-0.5625 0.64844-0.93359 1.0508-1.4844 1.0781-0.76953 0.039063-1.8906-0.65625-3.4336-2.1211-1.457-1.3867-3.3828-0.070312-5.082 1.0898-1.2109 0.82812-2.4648 1.6875-3.1445 1.2891-3.1641-1.8477-5.0508 0.039062-6.8711 1.8594-1.5391 1.5391-3.1328 3.1328-5.6562 2.7852-2.5-0.33984-2.7305-1.2891-3.0273-2.4883-0.46875-1.9141-1.2188-3.3789-6.1211-3.3789-1.7461 0-2.5039-1.3477-3.3047-2.7773-0.71484-1.2734-1.4531-2.5859-2.957-2.5234-4.6562 0.19922-5.5352-1.3125-5.9102-1.957zm5.9531 2.918c0.86328-0.035156 1.3516 0.75 2.0742 2.0352 0.82031 1.457 1.8359 3.2695 4.1445 3.2695 4.5352 0 4.8359 1.2266 5.1836 2.6445 0.074219 0.29688 0.14844 0.60547 0.26172 0.90625-1.9492-0.22266-3.5977-0.42188-4.8398-0.57422-6.5625-0.80859-8.1484-3.2422-8.8516-8.3086 0.59766 0.046875 1.2656 0.066407 2.0273 0.03125zm-2.9766 0.15625c0.20312 1.4219 0.48828 2.668 0.92578 3.75l-3.7422 1.1602c0.23438-2.1602 1.3281-4.043 2.8203-4.9102zm-2.8555 5.5898 4.0391-1.25c1.0117 2.0703 2.7383 3.4609 5.8242 4.2461l-6.8711 2.1797c-0.21484-0.11719-0.44922-0.23047-0.64062-0.35156-1.5391-0.95703-2.3867-2.7383-2.3477-4.8242zm38.512 24.734c-12.059 0-20.902-0.78516-27.039-2.4062-7.3516-1.9375-10.926-5.0352-10.926-9.4609 0-1.3203 0.23438-2.4453 0.73438-3.6562 0.24219 0.13281 0.52344 0.25 0.85547 0.36719 1.1133 0.40234 2.7969 1.0156 5.1523 3.7969 1.4766 1.7461 2.9883 1.1484 4.4492 0.57031 1.8281-0.72266 3.7188-1.4688 6.5664 1.1445 1.4102 1.293 3.3828 0.17188 5.2891-0.91406 1.4023-0.80078 2.8555-1.625 3.8242-1.3281 0.39844 0.125 0.71875 0.44141 0.97656 0.97656 0.67578 1.3906 0.32031 2.3711-0.089843 3.5039-0.28906 0.80078-0.61719 1.707-0.5625 2.8008 0.074219 1.4219 0.80078 2.5781 1.9453 3.1016 0.39062 0.17578 0.80078 0.26562 1.2031 0.26562 0.59375 0 1.168-0.1875 1.6367-0.55859 0.58984-0.46484 1.5078-1.6172 1.0273-4.1094-0.32031-1.6719-0.5-2.9062 0.15625-3.5898 0.85547-0.89453 3.2227-1.0156 7.4453-0.39062 0.38281 0.058594 0.70312 0.10938 0.98438 0.15625 1.793 0.30078 2.1914 0.32422 5.7344-0.50391 2.4648-0.57422 4.0977-0.55859 4.8594 0.054687 0.67969 0.54688 0.66797 1.5703 0.65625 2.6562-0.015625 1.3477-0.035156 3.0234 1.8281 3.2617 0.80078 0.10156 1.3906-0.074219 1.8008-0.53516 0.72656-0.82031 0.75-2.457 0.070313-5.1523-0.0625-0.24609-0.085937-0.61719 0.40234-0.99609 1.1641-0.90234 4.1445-1.0273 5.5938-0.23438 2 1.0938 3.0625 0.50781 4.1875-0.11328 1.1211-0.61719 2.3945-1.3203 5.168-0.92969 0.75781 0.10547 1.457-0.023438 2.0742-0.34766 0.039063 0.32422 0.042969 0.61719 0.042969 1.0312 0 10.133-17.328 11.531-36.055 11.531zm36.723-14.539c-0.67188 1.0625-1.5625 1.5234-2.6562 1.3711-3.0898-0.4375-4.6367 0.41797-5.7656 1.0391-1.0742 0.59375-1.7266 0.94922-3.2617 0.10937-1.7734-0.96875-5.1914-0.80469-6.6445 0.32031-0.67188 0.51953-0.9375 1.2305-0.74609 1.9922 0.75781 3.0078 0.41406 3.9727 0.14453 4.2773-0.11719 0.13281-0.34375 0.29688-0.95703 0.21875-0.91797-0.11719-1.0039-0.75391-0.98438-2.2969 0.015626-1.2109 0.03125-2.582-1.0156-3.418-1.0312-0.82812-2.8398-0.90625-5.6836-0.23828-3.457 0.80859-3.7461 0.75781-5.3594 0.48828-0.28906-0.046874-0.61328-0.10156-1.0039-0.16016-4.6875-0.69531-7.1641-0.49609-8.2812 0.67578-0.97266 1.0156-0.76953 2.543-0.40625 4.4375 0.28516 1.4766 0.042969 2.6016-0.67578 3.1719-0.5 0.39453-1.2109 0.46094-1.8477 0.17188-0.8125-0.36719-1.3281-1.2188-1.3828-2.2734-0.046874-0.90234 0.22266-1.6406 0.50781-2.4219 0.44531-1.2266 0.90625-2.4922 0.050781-4.2539-0.37891-0.77734-0.90234-1.2734-1.5586-1.4766-1.3633-0.42188-3 0.50781-4.5859 1.4102-1.6836 0.95703-3.2695 1.8633-4.1602 1.043-3.293-3.0234-5.7656-2.0469-7.5742-1.332-1.5312 0.60547-2.375 0.86719-3.3594-0.29688-2.5234-2.9766-4.3516-3.6406-5.5586-4.0781-1.1992-0.43359-1.5352-0.56641-1.2656-3.5 0.19922 0.16797 0.41016 0.32812 0.63672 0.46875 5.9492 3.7031 21.535 5.2852 33.074 5.5117l1.3203 0.027343c2.7617 0.058594 6.1016 0.125 9.6797 0.125 11.102 0 24.488-0.66406 29.949-4.4023 0.10156-0.070313 0.17969-0.15234 0.27734-0.22656 0.054688 0.76172-0.13281 2.2969-0.90234 3.5156zm1.8789-6.7812c-0.16797 1.1055-0.75391 1.9883-1.793 2.6992-0.074219 0.050781-0.16016 0.097656-0.23438 0.14844l0.51172-8.1523c0.98047 1.6797 1.7695 3.6133 1.5156 5.3086zm-44.438-37.348c0-0.35547 0.28906-0.64062 0.64063-0.64062h1.3672c0.35547 0 0.64062 0.28906 0.64062 0.64062 0 0.35547-0.28906 0.64062-0.64062 0.64062h-1.3672c-0.35547 0-0.64063-0.28906-0.64063-0.64062zm6.8516 2.1602-0.17188-1.0273c-0.058594-0.35156 0.17969-0.67969 0.52734-0.73828s0.67969 0.17969 0.73828 0.52734l0.17188 1.0273c0.058594 0.35156-0.17969 0.67969-0.52734 0.73828-0.035156 0.007813-0.070312 0.007813-0.10547 0.007813-0.30859 0-0.57813-0.22266-0.63281-0.53516zm3.7539-2.1602c0-0.35547 0.28906-0.64062 0.64062-0.64062h0.51172c0.35547 0 0.64062 0.28906 0.64062 0.64062 0 0.35547-0.28906 0.64062-0.64062 0.64062h-0.51172c-0.35547 0-0.64062-0.28906-0.64062-0.64062zm-15.738 0.68359v-0.68359c0-0.35547 0.28906-0.64062 0.64062-0.64062 0.35547 0 0.64062 0.28906 0.64062 0.64062v0.68359c0 0.35547-0.28906 0.64062-0.64062 0.64062-0.35547 0-0.64062-0.28906-0.64062-0.64062zm4.9023 3.6172c-0.29688-0.19531-0.375-0.59375-0.17969-0.89062l0.34375-0.51172c0.19531-0.29687 0.59375-0.375 0.89062-0.17969s0.375 0.59375 0.17969 0.89062l-0.34375 0.51172c-0.125 0.1875-0.32812 0.28516-0.53516 0.28516-0.12109 0-0.24609-0.035156-0.35547-0.10938zm13.078-1.4492c-0.25-0.25-0.25-0.65625 0-0.90625s0.65625-0.25 0.90625 0l1.0273 1.0273c0.25 0.25 0.25 0.65625 0 0.90625-0.125 0.125-0.28906 0.1875-0.45312 0.1875-0.16406 0-0.32813-0.0625-0.45313-0.1875zm4.1797-0.29688c-0.18359-0.30469-0.082031-0.69922 0.21875-0.87891l0.85547-0.51172c0.30469-0.18359 0.69922-0.082032 0.87891 0.21875 0.18359 0.30469 0.082031 0.69922-0.21875 0.87891l-0.85547 0.51172c-0.10156 0.0625-0.21875 0.089844-0.32812 0.089844-0.21875 0-0.42969-0.10938-0.55078-0.3125zm-27.387 1.6875c-0.16797-0.3125-0.054688-0.69922 0.25781-0.87109l1.8828-1.0273c0.3125-0.16797 0.70313-0.054687 0.87109 0.25781 0.16797 0.3125 0.054688 0.69922-0.25781 0.87109l-1.8828 1.0273c-0.097656 0.054687-0.20312 0.078125-0.30859 0.078125-0.22656 0-0.44922-0.12109-0.5625-0.33594zm13.801 0.89453c0.09375-0.34375 0.44531-0.54297 0.78906-0.44922l1.8828 0.51172c0.34375 0.09375 0.54297 0.44531 0.44922 0.78906-0.078124 0.28516-0.33594 0.47266-0.61719 0.47266-0.054687 0-0.11328-0.007812-0.16797-0.023437l-1.8828-0.51172c-0.34375-0.09375-0.54297-0.44531-0.44922-0.78906zm-7.2734-0.046875 1.1992 0.68359c0.30859 0.17578 0.41406 0.56641 0.23828 0.875-0.11719 0.20703-0.33594 0.32422-0.55859 0.32422-0.10938 0-0.21875-0.027343-0.31641-0.085937l-1.1992-0.68359c-0.30859-0.17578-0.41406-0.56641-0.23828-0.875s0.56641-0.41406 0.875-0.23828zm24.875-1.3242c0-0.35547 0.28906-0.64062 0.64062-0.64062h2.2227c0.35547 0 0.64063 0.28906 0.64063 0.64062 0 0.35547-0.28906 0.64062-0.64063 0.64062h-2.2227c-0.35547 0-0.64062-0.28906-0.64062-0.64062zm-37.438-0.48047c-0.11328-0.33594 0.070313-0.69922 0.40625-0.8125 0.33594-0.11328 0.69922 0.070313 0.8125 0.40625l0.51172 1.5391c0.11328 0.33594-0.070312 0.69922-0.40625 0.8125-0.066406 0.023437-0.13672 0.03125-0.20312 0.03125-0.26953 0-0.51953-0.17188-0.60938-0.4375z"/>
</svg>