<svg xmlns="http://www.w3.org/2000/svg" version="1.1" viewBox="-5.0 -10.0 110.0 135.0" fill="#6a3137">
 <path d="m49.863 80.16c-4.418 2.9883-9.7344 4.7344-15.473 4.7383-15.25-0.003907-27.645-12.387-27.641-27.648 0.003906-11.691 7.2734-21.699 17.543-25.738l-7.4961-7.1055c-0.066406-0.0625-0.12109-0.13281-0.16016-0.21484-0.15625-0.24219-0.19922-0.53906-0.11328-0.8125 0.042968-0.12891 0.10156-0.24609 0.17578-0.34766l4.4375-5.5859c0.15625-0.19141 0.375-0.32031 0.60938-0.36719 0 0 3.6055-0.68359 3.6211-0.68359 0 0 3.3828-0.64453 3.3984-0.64453l3.5938-0.68359c0.23438-0.042968 0.48828-0.003906 0.69922 0.12109l6.1758 3.5703c0.10547 0.066407 0.20703 0.15625 0.29297 0.25781 0.17578 0.22656 0.24609 0.51562 0.20312 0.79688-0.023438 0.09375-0.046875 0.17969-0.085938 0.26172l-4.457 9.5469c5.4297 0.15234 10.469 1.8711 14.68 4.7266 4.418-2.9922 9.7461-4.7383 15.473-4.7383 15.262 0 27.645 12.387 27.641 27.645 0.007812 15.254-12.375 27.641-27.637 27.645-5.7422 0-11.055-1.75-15.48-4.7383zm-23.613-47.184c-10.148 3.4062-17.457 12.992-17.457 24.273 0 14.133 11.465 25.605 25.602 25.605 5.5391 0 10.688-1.7695 14.883-4.7734 1.7891-1.2812 3.3984-2.7891 4.8125-4.4805 3.6797-4.4336 5.9023-10.133 5.9023-16.348-0.003907-5.8867-1.9961-11.316-5.3359-15.645-1.2812 0.875-2.4414 1.9023-3.4688 3.0547 2.6289 3.5117 4.1992 7.8672 4.1875 12.59 0.007812 5.0273-1.7578 9.6406-4.7148 13.258-1.4844 1.8164-3.2617 3.3789-5.2617 4.6133-3.1992 1.9766-6.9766 3.1172-11.012 3.1172-11.578 0-20.984-9.4062-20.988-20.988 0.011718-11.586 9.4141-20.992 20.992-20.988 3.7227 0 7.2227 0.96875 10.254 2.668 1.0586-1.1953 2.2188-2.2969 3.4648-3.293-3.9609-2.5273-8.6641-3.9922-13.715-3.9883-0.23047 0-0.46094 0-0.6875 0.007812-0.027343 0.003906-0.054687 0.003906-0.09375 0.007813-0.82031 0.027343-1.6484 0.097656-2.4531 0.20703-0.74219 0.097656-1.4609 0.22656-2.1758 0.38281-0.83203 0.18359-1.6289 0.40625-2.418 0.66406-0.10547 0.035156-0.20703 0.050781-0.31641 0.054687zm-6.6016-8.6797 6.8164 6.4648c0.25781-0.074219 0.50391-0.14453 0.76172-0.21484l-3.7227-6.9805zm0.36328-2.1445 3.2305-0.61328 0.84375-2.8242-1.582 0.30078zm8.5078-4.2773-2.1719 0.41016-0.84375 2.8242 4.8359-0.91797zm7.3086 1.2773-3.4688-2.0078-1.5781 0.30078 1.8203 2.3164zm1.125 1.8633-3.8555 0.73047-0.91406 7.9492c0.25-0.019531 0.49219-0.035156 0.73438-0.046874zm14.668 57.852c3.9727 2.5234 8.6758 3.9883 13.715 3.9883 14.137 0 25.609-11.473 25.613-25.602-0.011719-14.129-11.477-25.605-25.602-25.605-5.5508 0.003906-10.688 1.7695-14.883 4.7734-1.8008 1.2852-3.4102 2.7891-4.8242 4.4805-3.6797 4.4375-5.9062 10.137-5.9062 16.352 0.007813 5.8867 2 11.312 5.3516 15.641 1.2695-0.875 2.4414-1.9023 3.4688-3.0547-2.6406-3.5078-4.1992-7.8672-4.2031-12.586-0.003906-5.0273 1.7734-9.6445 4.7188-13.258 1.4844-1.8164 3.2578-3.3789 5.2578-4.6133 3.2148-1.9805 6.9805-3.1172 11.016-3.1172 11.578 0 20.984 9.4023 20.988 20.988 0 11.582-9.4141 20.988-20.992 20.988-3.7227 0-7.2109-0.97266-10.254-2.6719-1.0586 1.1953-2.2188 2.3008-3.4648 3.2969zm4.7852-38.324c3.5312 4.6406 5.6328 10.434 5.6328 16.711-0.003906 6.2734-2.1016 12.066-5.6328 16.711 2.668 1.4258 5.7031 2.2344 8.9414 2.2344 10.453 0 18.945-8.4922 18.938-18.945 0.007813-10.457-8.4922-18.945-18.945-18.945-3.2266-0.003906-6.2656 0.80859-8.9336 2.2344zm-6.5391 27.637c2.1875-3.0898 3.4766-6.8594 3.4648-10.926 0.011719-4.0703-1.2852-7.8398-3.4688-10.93-2.1758 3.0859-3.4648 6.8594-3.4648 10.926 0 4.0703 1.2852 7.8438 3.4688 10.93zm-6.543-27.637c-2.668-1.4258-5.7031-2.2344-8.9258-2.2383-10.469 0.003906-18.949 8.4883-18.953 18.949 0.003907 10.457 8.4922 18.945 18.945 18.945 3.2227 0 6.2656-0.80859 8.9336-2.2344-3.5352-4.6445-5.6211-10.438-5.6328-16.711 0-6.2773 2.0977-12.066 5.6328-16.711zm-17.715-17.375 3.6797 6.9102c0.26172-0.046875 0.53516-0.09375 0.8125-0.14062l0.89063-7.7891z" fill-rule="evenodd"/>
</svg>