<svg xmlns="http://www.w3.org/2000/svg" viewBox="0 0 100 125" x="0px" y="0px" fill="#6a3137"><path d="M37.73,33.39h0a1.5,1.5,0,0,0-.78,2.9,1.74,1.74,0,0,0,.39.05,1.5,1.5,0,0,0,.39-3ZM37.82,35a.5.5,0,0,1-.61.35.5.5,0,0,1,.13-1h.13A.52.52,0,0,1,37.82,35Z"/><path d="M33.2,41.3a1.5,1.5,0,0,0-.36-2.75,1.5,1.5,0,1,0-.77,2.9,1.74,1.74,0,0,0,.39,0A1.49,1.49,0,0,0,33.2,41.3ZM32,39.87a.56.56,0,0,1,.23-.31.57.57,0,0,1,.25-.06.27.27,0,0,1,.13,0h0a.5.5,0,0,1,.36.61.51.51,0,0,1-.24.3.44.44,0,0,1-.37,0A.5.5,0,0,1,32,39.87Z"/><path d="M34.08,45.15a1.5,1.5,0,0,0-1.69,2.2,1.48,1.48,0,0,0,.91.7,1.31,1.31,0,0,0,.39.05,1.43,1.43,0,0,0,.75-.2,1.46,1.46,0,0,0,.7-.91A1.51,1.51,0,0,0,34.08,45.15Zm.09,1.58a.48.48,0,0,1-.23.31.55.55,0,0,1-.38.05.51.51,0,0,1-.3-.24.46.46,0,0,1,0-.38.5.5,0,0,1,.23-.3.45.45,0,0,1,.25-.07l.13,0h0A.49.49,0,0,1,34.17,46.73Z"/><path d="M44,22a31.54,31.54,0,0,0-4.27-1.44h0c-2.44-.66-6.58-1.57-6.91-.35v0l0,0c0,.07-2.63,7-4.87,15.08-.15.52-.34,1.15-.55,1.86C26.2,41.12,24.45,47,25.17,49.88A10.94,10.94,0,0,0,28,55.14c1,1,1.49,1.63.92,3.79-1.17,4.43-2.46,9.17-3.55,13.17-1,3.61-1.83,6.73-2.23,8.3l-.08.33a8.16,8.16,0,0,1-.74,2.14c-4.48-1.14-12.09-2.47-12.67-.29s7.44,5.1,11.78,6.26a45.38,45.38,0,0,0,10,1.63c1.76,0,3.06-.31,3.29-1.16s-.84-2-3.34-3.24a47.5,47.5,0,0,0-7.78-2.84A8.33,8.33,0,0,1,24.06,81l.1-.32c.43-1.56,1.21-4.49,2.19-8.22,1.06-4,2.33-8.82,3.53-13.26.59-2.16,1.34-2.4,2.7-2.83a10.87,10.87,0,0,0,5.07-3.15c2.05-2.12,3.48-8.09,4.43-12,.17-.73.32-1.37.46-1.89,2.09-8.12,3.3-15.42,3.31-15.5s0,0,0,0,0,0,0,0C46,23.17,45.49,22.69,44,22ZM41.87,29.9a31.54,31.54,0,0,0-4.27-1.44c-2-.52-5-1.21-6.31-.83,1-2.95,1.78-5.23,2.17-6.3a9.49,9.49,0,0,0,1.22.63A32,32,0,0,0,39,23.4a24.5,24.5,0,0,0,5.34,1c.17,0,.31,0,.46,0-.2,1.11-.63,3.49-1.27,6.53A5.68,5.68,0,0,0,41.87,29.9Zm.45,1.34a23.51,23.51,0,0,1-5.22-.93,24,24,0,0,1-5-1.81,23.51,23.51,0,0,1,5.22.93A23.38,23.38,0,0,1,42.32,31.24Zm-2.87-9.69h0a24,24,0,0,1,5,1.81,23.51,23.51,0,0,1-5.22-.93,23.54,23.54,0,0,1-5-1.8A23.91,23.91,0,0,1,39.45,21.55Zm-5.66,67.5c-.16.57-4.46.87-12.11-1.18s-11.23-4.46-11.08-5c.07-.24.83-.43,2.23-.43a38.29,38.29,0,0,1,8.8,1.32,2.59,2.59,0,0,1-.41.31,3.82,3.82,0,0,1-3,.18.5.5,0,0,0-.26,1,4.72,4.72,0,0,0,3.77-.29,3.72,3.72,0,0,0,1-.84,3.94,3.94,0,0,0,.41,1.21,4.8,4.8,0,0,0,3.12,2.14h.13a.5.5,0,0,0,.13-1A3.85,3.85,0,0,1,24,84.78a2.14,2.14,0,0,1-.2-.47A44.55,44.55,0,0,1,31,87C33.77,88.36,33.79,89,33.79,89.05Zm7.78-50c-.14.52-.29,1.17-.47,1.9-.86,3.62-2.31,9.67-4.17,11.59a9.82,9.82,0,0,1-4.66,2.88,4.71,4.71,0,0,0-2.22,1.21,4.72,4.72,0,0,0-1.32-2.16,9.82,9.82,0,0,1-2.59-4.83c-.65-2.59,1.12-8.56,2.18-12.12l.55-1.87c.67-2.43,1.38-4.75,2-6.81a4.79,4.79,0,0,0,1.66,1,30.56,30.56,0,0,0,4.27,1.45,24.37,24.37,0,0,0,5.34.94,3.35,3.35,0,0,0,1-.13C42.75,34.21,42.2,36.59,41.57,39Z"/><path d="M62.27,33.39h0a1.5,1.5,0,0,0,.39,3,1.74,1.74,0,0,0,.39-.05,1.5,1.5,0,0,0-.78-2.9Zm.52,1.93a.5.5,0,0,1-.61-.35.52.52,0,0,1,.35-.62.51.51,0,0,1,.61.36A.5.5,0,0,1,62.79,35.32Z"/><path d="M68.3,38.7a1.52,1.52,0,0,0-1.14-.15,1.5,1.5,0,0,0,.38,3,1.74,1.74,0,0,0,.39,0,1.5,1.5,0,0,0,.37-2.75Zm-.63,1.78a.44.44,0,0,1-.37,0,.51.51,0,0,1-.24-.3.5.5,0,0,1,.36-.61h0a.27.27,0,0,1,.13,0,.57.57,0,0,1,.25.06.56.56,0,0,1,.23.31A.5.5,0,0,1,67.67,40.48Z"/><path d="M67.06,45.3A1.5,1.5,0,0,0,64.86,47a1.46,1.46,0,0,0,.7.91,1.43,1.43,0,0,0,.75.2,1.31,1.31,0,0,0,.39-.05,1.48,1.48,0,0,0,.91-.7,1.5,1.5,0,0,0-.55-2.05Zm-.32,1.55a.51.51,0,0,1-.3.24.55.55,0,0,1-.38-.05.48.48,0,0,1-.23-.31.49.49,0,0,1,.35-.61h0l.13,0a.45.45,0,0,1,.25.07.5.5,0,0,1,.23.3A.46.46,0,0,1,66.74,46.85Z"/><path d="M90.36,82.58c-.58-2.18-8.19-.85-12.67.29A8.16,8.16,0,0,1,77,80.73l-.08-.33c-.4-1.57-1.25-4.69-2.23-8.3-1.09-4-2.38-8.74-3.55-13.17-.57-2.16,0-2.74.92-3.79a10.94,10.94,0,0,0,2.82-5.26c.72-2.86-1-8.76-2.19-12.65-.21-.71-.4-1.34-.55-1.86-2.24-8.08-4.84-15-4.87-15.08l0,0v0c-.33-1.22-4.47-.31-6.91.35h0A31.54,31.54,0,0,0,56,22c-1.51.66-2,1.14-1.88,1.71,0,0,0,0,0,0s0,0,0,0,1.22,7.38,3.31,15.5c.14.52.29,1.16.46,1.89.95,4,2.38,9.92,4.43,12a10.87,10.87,0,0,0,5.07,3.15c1.36.43,2.11.67,2.7,2.83,1.2,4.44,2.47,9.24,3.53,13.26,1,3.73,1.76,6.66,2.19,8.22l.1.32a8.33,8.33,0,0,1,.43,2.23,47.5,47.5,0,0,0-7.78,2.84c-2.5,1.24-3.59,2.3-3.34,3.24s1.53,1.16,3.29,1.16a45.38,45.38,0,0,0,10-1.63C82.92,87.68,91,84.87,90.36,82.58Zm-28-54.12a31.54,31.54,0,0,0-4.27,1.44,5.68,5.68,0,0,0-1.61,1c-.64-3-1.07-5.42-1.27-6.53.15,0,.29,0,.46,0a24.5,24.5,0,0,0,5.34-1A32,32,0,0,0,65.32,22a9.49,9.49,0,0,0,1.22-.63c.39,1.07,1.2,3.35,2.17,6.3C67.4,27.25,64.36,27.94,62.4,28.46Zm5.48,0a24,24,0,0,1-5,1.81,23.51,23.51,0,0,1-5.22.93,23.38,23.38,0,0,1,5-1.81A23.51,23.51,0,0,1,67.88,28.5Zm-7.33-6.95h0a23.91,23.91,0,0,1,5.22-.92,23.54,23.54,0,0,1-5,1.8,23.51,23.51,0,0,1-5.22.93A24,24,0,0,1,60.55,21.55Zm7.18,33.86a9.82,9.82,0,0,1-4.66-2.88c-1.86-1.92-3.31-8-4.17-11.59-.18-.73-.33-1.38-.47-1.9-.63-2.45-1.18-4.83-1.64-6.95a3.35,3.35,0,0,0,1,.13,24.37,24.37,0,0,0,5.34-.94,30.56,30.56,0,0,0,4.27-1.45,4.79,4.79,0,0,0,1.66-1c.66,2.06,1.37,4.38,2,6.81l.55,1.87c1.06,3.56,2.83,9.53,2.18,12.12a9.82,9.82,0,0,1-2.59,4.83A4.72,4.72,0,0,0,70,56.62,4.71,4.71,0,0,0,67.73,55.41ZM78.32,87.87c-7.65,2-11.95,1.75-12.11,1.18,0,0,0-.69,2.82-2.08a44.55,44.55,0,0,1,7.18-2.66,2.14,2.14,0,0,1-.2.47,3.85,3.85,0,0,1-2.5,1.65.5.5,0,0,0,.13,1h.13a4.8,4.8,0,0,0,3.12-2.14,3.94,3.94,0,0,0,.41-1.21,3.72,3.72,0,0,0,1,.84,4.72,4.72,0,0,0,3.77.29.5.5,0,1,0-.26-1,3.82,3.82,0,0,1-3-.18,2.59,2.59,0,0,1-.41-.31c7-1.74,10.88-1.44,11-.89S86,85.82,78.32,87.87Z"/><path d="M50,9.52a.51.51,0,0,0-.5.5v7a.51.51,0,0,0,.5.5.5.5,0,0,0,.5-.5V10A.5.5,0,0,0,50,9.52Z"/><path d="M45.36,10.44a.5.5,0,0,0-1,.26l1.81,6.76a.51.51,0,0,0,.49.37.32.32,0,0,0,.13,0,.5.5,0,0,0,.35-.61Z"/><path d="M55.25,10.29a.5.5,0,0,0-.61.36L52.83,17.4a.51.51,0,0,0,.35.62h.13a.5.5,0,0,0,.49-.37l1.81-6.75A.51.51,0,0,0,55.25,10.29Z"/></svg>